<svg width="60" height="57" viewBox="0 0 60 57" fill="none" xmlns="http://www.w3.org/2000/svg">
<path d="M20.769 46.456H19.4022C8.46739 46.456 3 43.8998 3 31.1186V18.3374C3 8.11247 8.46739 3 19.4022 3H41.2717C52.2065 3 57.6739 8.11247 57.6739 18.3374V31.1186C57.6739 41.3435 52.2065 46.456 41.2717 46.456H39.9049C39.0574 46.456 38.2373 46.8394 37.7179 47.4785L33.6174 52.591C31.8131 54.8405 28.8608 54.8405 27.0565 52.591L22.956 47.4785C22.5186 46.9161 21.5071 46.456 20.769 46.456Z" stroke="#D4D7DB" stroke-width="4.10054" stroke-miterlimit="10" stroke-linecap="round" stroke-linejoin="round"/>
<path d="M41.2622 26.0061H41.2865" stroke="#D4D7DB" stroke-width="5.46739" stroke-linecap="round" stroke-linejoin="round"/>
<path d="M30.3247 26.0061H30.3493" stroke="#D4D7DB" stroke-width="5.46739" stroke-linecap="round" stroke-linejoin="round"/>
<path d="M19.3872 26.0061H19.4118" stroke="#D4D7DB" stroke-width="5.46739" stroke-linecap="round" stroke-linejoin="round"/>
</svg>
