<svg width="212" height="196" viewBox="0 0 212 196" fill="none" xmlns="http://www.w3.org/2000/svg">
<path d="M212 149.901H0V149.999H212V149.901Z" fill="#EBEBEB"/>
<path d="M73.4453 152.402H63.6169V152.5H73.4453V152.402Z" fill="#EBEBEB"/>
<path d="M194.518 154.503H170.49V154.601H194.518V154.503Z" fill="#EBEBEB"/>
<path d="M42.1414 154.503H18.1133V154.601H42.1414V154.503Z" fill="#EBEBEB"/>
<path d="M100.488 132.418H18.6179C17.9765 132.417 17.3618 132.18 16.9087 131.761C16.4555 131.341 16.201 130.772 16.201 130.179V23.7787C16.2066 23.1892 16.4636 22.6254 16.9161 22.21C17.3686 21.7946 17.9801 21.561 18.6179 21.56H100.488C101.13 21.56 101.746 21.7958 102.2 22.2156C102.654 22.6354 102.909 23.2047 102.909 23.7983V130.179C102.909 130.773 102.654 131.342 102.2 131.762C101.746 132.182 101.13 132.418 100.488 132.418ZM18.6179 21.6384C18.0046 21.6394 17.4168 21.8654 16.9836 22.2667C16.5504 22.6679 16.307 23.2117 16.307 23.7787V130.179C16.307 130.746 16.5504 131.29 16.9836 131.691C17.4168 132.093 18.0046 132.319 18.6179 132.32H100.488C101.101 132.318 101.689 132.091 102.123 131.69C102.556 131.289 102.801 130.746 102.803 130.179V23.7787C102.801 23.2117 102.556 22.6685 102.123 22.2676C101.689 21.8666 101.101 21.6405 100.488 21.6384H18.6179Z" fill="#EBEBEB"/>
<path d="M192.203 132.418H110.329C109.688 132.416 109.073 132.179 108.62 131.76C108.166 131.34 107.91 130.772 107.908 130.179V23.7787C107.915 23.1888 108.173 22.6251 108.626 22.2098C109.079 21.7945 109.691 21.561 110.329 21.56H192.203C192.84 21.562 193.451 21.7961 193.902 22.2114C194.354 22.6267 194.61 23.1898 194.616 23.7787V130.179C194.617 130.473 194.555 130.763 194.434 131.035C194.313 131.306 194.135 131.553 193.911 131.76C193.687 131.968 193.421 132.133 193.128 132.246C192.835 132.359 192.521 132.417 192.203 132.418ZM110.329 21.6384C109.716 21.6405 109.128 21.8666 108.694 22.2676C108.261 22.6685 108.016 23.2117 108.014 23.7787V130.179C108.016 130.746 108.261 131.289 108.694 131.69C109.128 132.091 109.716 132.318 110.329 132.32H192.203C192.817 132.318 193.404 132.091 193.838 131.69C194.272 131.289 194.516 130.746 194.518 130.179V23.7787C194.516 23.2117 194.272 22.6685 193.838 22.2676C193.404 21.8666 192.817 21.6405 192.203 21.6384H110.329Z" fill="#EBEBEB"/>
<path d="M41.8487 51.1207H77.1679C77.5233 51.1202 77.8754 51.1845 78.2038 51.31C78.5323 51.4355 78.8307 51.6197 79.082 51.8521C79.3333 52.0844 79.5325 52.3603 79.6683 52.664C79.804 52.9677 79.8736 53.2931 79.8731 53.6217V149.811H39.1691V53.6178C39.1702 52.9592 39.4522 52.3276 39.9539 51.8601C40.4556 51.3926 41.1365 51.1269 41.8487 51.1207Z" fill="#F5F5F5"/>
<path d="M47.7763 56.9498H42.5272V67.7533H47.7763V56.9498Z" fill="#EBEBEB"/>
<path d="M76.4812 56.9498H71.2321V67.7533H76.4812V56.9498Z" fill="#EBEBEB"/>
<path d="M57.3418 56.9498H52.0927V67.7533H57.3418V56.9498Z" fill="#EBEBEB"/>
<path d="M66.9115 56.9498H61.6624V67.7533H66.9115V56.9498Z" fill="#EBEBEB"/>
<path d="M47.7763 74.0057H42.5272V84.8092H47.7763V74.0057Z" fill="#EBEBEB"/>
<path d="M76.4812 74.0057H71.2321V84.8092H76.4812V74.0057Z" fill="#EBEBEB"/>
<path d="M57.3418 74.0057H52.0927V84.8092H57.3418V74.0057Z" fill="#EBEBEB"/>
<path d="M66.9115 74.0057H61.6624V84.8092H66.9115V74.0057Z" fill="#EBEBEB"/>
<path d="M47.7763 91.0577H42.5272V101.861H47.7763V91.0577Z" fill="#EBEBEB"/>
<path d="M76.4812 91.0577H71.2321V101.861H76.4812V91.0577Z" fill="#EBEBEB"/>
<path d="M57.3418 91.0577H52.0927V101.861H57.3418V91.0577Z" fill="#EBEBEB"/>
<path d="M66.9115 91.0577H61.6624V101.861H66.9115V91.0577Z" fill="#EBEBEB"/>
<path d="M47.7763 108.114H42.5272V118.917H47.7763V108.114Z" fill="#EBEBEB"/>
<path d="M76.4812 108.114H71.2321V118.917H76.4812V108.114Z" fill="#EBEBEB"/>
<path d="M57.3418 108.114H52.0927V118.917H57.3418V108.114Z" fill="#EBEBEB"/>
<path d="M66.9115 108.114H61.6624V118.917H66.9115V108.114Z" fill="#EBEBEB"/>
<path d="M47.7763 125.166H42.5272V135.969H47.7763V125.166Z" fill="#EBEBEB"/>
<path d="M76.4812 125.166H71.2321V135.969H76.4812V125.166Z" fill="#EBEBEB"/>
<path d="M57.3418 125.166H52.0927V135.969H57.3418V125.166Z" fill="#EBEBEB"/>
<path d="M66.9115 125.166H61.6624V135.969H66.9115V125.166Z" fill="#EBEBEB"/>
<path d="M167.031 60.0858H192.318C192.901 60.0868 193.46 60.3015 193.873 60.6828C194.285 61.0641 194.517 61.581 194.519 62.1202V149.811H164.839V62.1242C164.838 61.5856 165.069 61.0689 165.48 60.6869C165.891 60.305 166.448 60.0889 167.031 60.0858Z" fill="#F5F5F5"/>
<path d="M173.382 65.3895H168.612V75.2091H173.382V65.3895Z" fill="#EBEBEB"/>
<path d="M182.082 65.3895H177.312V75.2091H182.082V65.3895Z" fill="#EBEBEB"/>
<path d="M190.779 65.3895H186.009V75.2091H190.779V65.3895Z" fill="#EBEBEB"/>
<path d="M173.382 80.8931H168.612V90.7127H173.382V80.8931Z" fill="#EBEBEB"/>
<path d="M182.082 80.8931H177.312V90.7127H182.082V80.8931Z" fill="#EBEBEB"/>
<path d="M190.779 80.8931H186.009V90.7127H190.779V80.8931Z" fill="#EBEBEB"/>
<path d="M173.382 96.4006H168.612V106.22H173.382V96.4006Z" fill="#EBEBEB"/>
<path d="M182.082 96.4006H177.312V106.22H182.082V96.4006Z" fill="#EBEBEB"/>
<path d="M190.779 96.4006H186.009V106.22H190.779V96.4006Z" fill="#EBEBEB"/>
<path d="M173.382 111.9H168.612V121.72H173.382V111.9Z" fill="#EBEBEB"/>
<path d="M182.082 111.9H177.312V121.72H182.082V111.9Z" fill="#EBEBEB"/>
<path d="M190.779 111.9H186.009V121.72H190.779V111.9Z" fill="#EBEBEB"/>
<path d="M173.382 127.408H168.612V137.227H173.382V127.408Z" fill="#EBEBEB"/>
<path d="M182.082 127.408H177.312V137.227H182.082V127.408Z" fill="#EBEBEB"/>
<path d="M190.779 127.408H186.009V137.227H190.779V127.408Z" fill="#EBEBEB"/>
<path d="M109.099 34.9899H150.177C151.011 34.9899 151.811 35.2964 152.401 35.8418C152.991 36.3873 153.323 37.1271 153.323 37.8986V149.811H105.958V37.8986C105.958 37.1278 106.289 36.3886 106.878 35.8432C107.467 35.2979 108.266 34.991 109.099 34.9899Z" fill="#F5F5F5"/>
<path d="M115.994 41.7754H109.888V54.343H115.994V41.7754Z" fill="#EBEBEB"/>
<path d="M149.388 41.7754H143.282V54.343H149.388V41.7754Z" fill="#EBEBEB"/>
<path d="M127.124 41.7754H121.018V54.343H127.124V41.7754Z" fill="#EBEBEB"/>
<path d="M138.258 41.7754H132.152V54.343H138.258V41.7754Z" fill="#EBEBEB"/>
<path d="M115.994 61.6185H109.888V74.186H115.994V61.6185Z" fill="#EBEBEB"/>
<path d="M149.388 61.6185H143.282V74.186H149.388V61.6185Z" fill="#EBEBEB"/>
<path d="M127.124 61.6185H121.018V74.186H127.124V61.6185Z" fill="#EBEBEB"/>
<path d="M138.258 61.6185H132.152V74.186H138.258V61.6185Z" fill="#EBEBEB"/>
<path d="M115.994 81.4615H109.888V94.029H115.994V81.4615Z" fill="#EBEBEB"/>
<path d="M149.388 81.4615H143.282V94.029H149.388V81.4615Z" fill="#EBEBEB"/>
<path d="M127.124 81.4615H121.018V94.029H127.124V81.4615Z" fill="#EBEBEB"/>
<path d="M138.258 81.4615H132.152V94.029H138.258V81.4615Z" fill="#EBEBEB"/>
<path d="M115.994 101.301H109.888V113.868H115.994V101.301Z" fill="#EBEBEB"/>
<path d="M149.388 101.301H143.282V113.868H149.388V101.301Z" fill="#EBEBEB"/>
<path d="M127.124 101.301H121.018V113.868H127.124V101.301Z" fill="#EBEBEB"/>
<path d="M138.258 101.301H132.152V113.868H138.258V101.301Z" fill="#EBEBEB"/>
<path d="M115.994 121.14H109.888V133.707H115.994V121.14Z" fill="#EBEBEB"/>
<path d="M149.388 121.14H143.282V133.707H149.388V121.14Z" fill="#EBEBEB"/>
<path d="M127.124 121.14H121.018V133.707H127.124V121.14Z" fill="#EBEBEB"/>
<path d="M138.258 121.14H132.152V133.707H138.258V121.14Z" fill="#EBEBEB"/>
<path d="M105.953 76.1146H79.8604V149.815H105.953V76.1146Z" fill="#E6E6E6"/>
<path d="M164.855 84.0056H153.327V149.811H164.855V84.0056Z" fill="#E6E6E6"/>
<path d="M39.1436 149.811H16.307V119.043L39.1436 111.9V149.811Z" fill="#E6E6E6"/>
<path d="M106 167.604C151.403 167.604 188.209 164.815 188.209 161.375C188.209 157.935 151.403 155.146 106 155.146C60.597 155.146 23.7906 157.935 23.7906 161.375C23.7906 164.815 60.597 167.604 106 167.604Z" fill="#F5F5F5"/>
<path d="M126.216 136.777H119.008C115.256 136.777 112.224 141.806 112.224 148.011C112.224 154.217 115.264 159.242 119.008 159.242H126.216C129.969 159.242 133 154.213 133 148.011C133 141.81 129.969 136.777 126.216 136.777Z" fill="#263238"/>
<mask id="mask0_11_748" style="mask-type:luminance" maskUnits="userSpaceOnUse" x="112" y="136" width="22" height="24">
<path d="M126.216 136.777H119.008C115.256 136.777 112.224 141.806 112.224 148.011C112.224 154.217 115.264 159.242 119.008 159.242H126.216C129.969 159.242 133 154.213 133 148.011C133 141.81 129.969 136.777 126.216 136.777Z" fill="white"/>
</mask>
<g mask="url(#mask0_11_748)">
<path opacity="0.05" d="M134.696 136.777H127.488C123.736 136.777 120.704 141.806 120.704 148.011C120.704 154.217 123.744 159.242 127.488 159.242H134.696C138.449 159.242 141.48 154.213 141.48 148.011C141.48 141.81 138.449 136.777 134.696 136.777Z" fill="white"/>
</g>
<path d="M184.605 139.184L58.3848 139.101V64.5624H184.605V139.184Z" fill="#017143"/>
<path opacity="0.3" d="M184.605 64.5624H99.0591V139.18H184.605V64.5624Z" fill="#263238"/>
<path opacity="0.2" d="M99.0591 64.5624H58.3848V140.654H99.0591V64.5624Z" fill="white"/>
<path opacity="0.1" d="M58.6901 68.0277H184.605" stroke="white" stroke-width="2" stroke-linecap="round" stroke-linejoin="round"/>
<path opacity="0.1" d="M58.6901 71.2538H184.605" stroke="white" stroke-width="2" stroke-linecap="round" stroke-linejoin="round"/>
<path opacity="0.1" d="M58.6901 74.4761H184.605" stroke="white" stroke-width="2" stroke-linecap="round" stroke-linejoin="round"/>
<path opacity="0.1" d="M58.6901 77.6983H184.605" stroke="white" stroke-width="2" stroke-linecap="round" stroke-linejoin="round"/>
<path opacity="0.1" d="M58.6901 80.9245H184.605" stroke="white" stroke-width="2" stroke-linecap="round" stroke-linejoin="round"/>
<path opacity="0.1" d="M58.6901 84.1467H184.605" stroke="white" stroke-width="2" stroke-linecap="round" stroke-linejoin="round"/>
<path opacity="0.1" d="M58.6901 87.369H184.605" stroke="white" stroke-width="2" stroke-linecap="round" stroke-linejoin="round"/>
<path opacity="0.1" d="M58.6901 90.5912H184.605" stroke="white" stroke-width="2" stroke-linecap="round" stroke-linejoin="round"/>
<path opacity="0.1" d="M58.6901 93.8174H184.605" stroke="white" stroke-width="2" stroke-linecap="round" stroke-linejoin="round"/>
<path opacity="0.1" d="M58.6901 97.0396H184.605" stroke="white" stroke-width="2" stroke-linecap="round" stroke-linejoin="round"/>
<path opacity="0.1" d="M58.6901 100.262H184.605" stroke="white" stroke-width="2" stroke-linecap="round" stroke-linejoin="round"/>
<path opacity="0.1" d="M58.6901 103.488H184.605" stroke="white" stroke-width="2" stroke-linecap="round" stroke-linejoin="round"/>
<path opacity="0.1" d="M58.6901 106.71H184.605" stroke="white" stroke-width="2" stroke-linecap="round" stroke-linejoin="round"/>
<path opacity="0.1" d="M58.6901 109.932H184.605" stroke="white" stroke-width="2" stroke-linecap="round" stroke-linejoin="round"/>
<path opacity="0.1" d="M58.6901 113.155H184.605" stroke="white" stroke-width="2" stroke-linecap="round" stroke-linejoin="round"/>
<path opacity="0.1" d="M58.6901 116.381H184.605" stroke="white" stroke-width="2" stroke-linecap="round" stroke-linejoin="round"/>
<path opacity="0.1" d="M58.6901 119.603H184.605" stroke="white" stroke-width="2" stroke-linecap="round" stroke-linejoin="round"/>
<path opacity="0.1" d="M58.6901 122.825H184.605" stroke="white" stroke-width="2" stroke-linecap="round" stroke-linejoin="round"/>
<path opacity="0.1" d="M58.6901 126.052H184.605" stroke="white" stroke-width="2" stroke-linecap="round" stroke-linejoin="round"/>
<path opacity="0.1" d="M58.6901 129.274H184.605" stroke="white" stroke-width="2" stroke-linecap="round" stroke-linejoin="round"/>
<path opacity="0.1" d="M58.6901 132.496H184.605" stroke="white" stroke-width="2" stroke-linecap="round" stroke-linejoin="round"/>
<path opacity="0.1" d="M58.6901 135.722H184.605" stroke="white" stroke-width="2" stroke-linecap="round" stroke-linejoin="round"/>
<path d="M35.2217 138.243H28.5522C25.0754 138.243 22.26 142.9 22.26 148.646C22.26 154.393 25.0754 159.046 28.5522 159.046H35.2217C38.6985 159.046 41.5139 154.389 41.5139 148.646C41.5139 142.904 38.6985 138.243 35.2217 138.243Z" fill="#263238"/>
<path opacity="0.05" d="M43.7059 138.243H37.0321C33.5553 138.243 30.74 142.9 30.74 148.646C30.74 154.393 33.5553 159.046 37.0321 159.046H43.7059C47.1785 159.046 49.9981 154.389 49.9981 148.646C49.9981 142.904 47.1785 138.243 43.7059 138.243Z" fill="white"/>
<path d="M31.5117 117.925H28.3571C27.7381 117.945 27.2293 117.333 27.2165 116.557C27.2081 116.476 27.2081 116.395 27.2165 116.314L28.0645 107.506C28.1705 106.6 28.7769 105.938 29.5061 105.895H32.6904C33.3052 105.895 33.814 106.495 33.8267 107.271C33.8267 107.349 33.8267 107.428 33.8267 107.506L32.9787 116.314C32.8515 117.208 32.224 117.902 31.5117 117.925Z" fill="#263238"/>
<path d="M34.6662 88.8311L28.5818 119.168L94.8233 143.158L94.3612 83.3706L79.7925 82.9786H39.8856C37.4858 82.959 35.37 85.3423 34.6662 88.8311Z" fill="#017143"/>
<path d="M83.9519 93.7115C81.48 93.6096 79.2625 95.4834 78.5374 98.2783L73.5258 117.69H63.8798L63.354 143.3H95.0819" fill="#017143"/>
<path d="M35.616 116.059C34.645 116.059 33.8606 114.907 33.8606 113.488C33.8602 113.241 33.8857 112.994 33.9369 112.751L37.5791 94.9385C37.8844 93.4606 38.8172 92.4493 39.8729 92.4532H74.7172C75.0946 92.4532 75.4041 92.9001 75.4041 93.4567C75.405 93.5554 75.395 93.6539 75.3744 93.7507C74.6112 97.4198 72.1308 109.576 71.1811 114.225C70.9606 115.315 70.2737 116.059 69.4851 116.059H35.616Z" fill="#263238"/>
<path d="M67.6789 123.954C67.6782 124.266 67.6541 124.578 67.6068 124.887L67.4245 126.036L67.3185 126.714L66.5383 131.669L65.2663 139.724L64.9144 141.963H15.6074V139.724L15.6413 131.669L15.688 126.851V124.891C15.264 122.304 16.6165 119.795 18.6772 119.274C18.919 119.213 19.1686 119.183 19.4192 119.184H63.8798C65.9786 119.168 67.6789 121.316 67.6789 123.954Z" fill="#017143"/>
<path d="M92.7415 94.864V113.958C92.7415 115.115 92.1013 116.056 91.3084 116.059H79.2583C78.4654 116.059 77.8252 115.119 77.8252 113.958C77.8249 113.769 77.842 113.58 77.8761 113.394L81.5903 93.8722C81.7684 92.9354 82.362 92.3042 83.0234 92.3395L91.3593 92.7629C92.131 92.806 92.7415 93.735 92.7415 94.864Z" fill="#263238"/>
<path opacity="0.1" d="M55.9425 92.4532H49.2857L41.641 116.059H48.302L55.9425 92.4532Z" fill="white"/>
<path opacity="0.1" d="M61.1238 92.4532H57.9438L50.3033 116.059H53.4791L61.1238 92.4532Z" fill="white"/>
<path d="M80.4539 131.669V139.724H15.6158L15.6498 131.669H80.4539Z" fill="black"/>
<path d="M71.4227 131.669H65.4273L54.645 137.525V139.724H80.4539V131.669H71.4227Z" fill="white"/>
<path d="M26.7925 137.525V139.724H15.6158L15.6498 131.669H16.0144L26.7925 137.525Z" fill="white"/>
<path opacity="0.3" d="M94.853 143.3L94.3611 83.3706L85.4571 82.9786C83.2354 82.8766 80.6701 85.2639 80.0214 88.0314L73.5681 119.168H71.0538C68.23 119.168 66.2965 121.069 66.3008 123.088L66.339 143.307H94.853" fill="#263238"/>
<path d="M67.5135 126.318C67.5126 126.392 67.4948 126.466 67.4612 126.533C67.4276 126.601 67.3789 126.661 67.3185 126.71C67.2148 126.799 67.0783 126.848 66.9369 126.847H15.688V125.781H66.9496C67.0472 125.781 67.1431 125.804 67.2284 125.848C67.3137 125.892 67.3855 125.955 67.4372 126.032C67.4908 126.119 67.5172 126.218 67.5135 126.318Z" fill="white"/>
<path d="M24.7277 125.785V126.851H15.671L15.6753 125.785H24.7277Z" fill="#263238"/>
<path d="M67.5134 126.318C67.5125 126.392 67.4947 126.466 67.4611 126.533C67.4275 126.601 67.3789 126.661 67.3184 126.71C67.2147 126.799 67.0783 126.848 66.9368 126.847H54.5051V125.781H66.9368C67.0344 125.781 67.1303 125.804 67.2156 125.848C67.3009 125.892 67.3727 125.955 67.4244 126.032C67.4825 126.118 67.5133 126.217 67.5134 126.318Z" fill="#263238"/>
<path d="M186.869 141.12V141.332C186.869 141.852 186.646 142.35 186.249 142.718C185.851 143.085 185.312 143.292 184.749 143.292H16.3367C15.7744 143.292 15.2352 143.085 14.8376 142.718C14.44 142.35 14.2167 141.852 14.2167 141.332V141.12C14.2167 140.6 14.44 140.102 14.8376 139.734C15.2352 139.366 15.7744 139.16 16.3367 139.16H184.749C185.312 139.16 185.851 139.366 186.249 139.734C186.646 140.102 186.869 140.6 186.869 141.12Z" fill="#263238"/>
<path d="M53.6826 140.771H28.5818V141.904H53.6826V140.771Z" fill="black"/>
<path d="M21.9038 141.336C21.9038 141.463 21.8629 141.588 21.7862 141.695C21.7095 141.801 21.6005 141.884 21.4729 141.933C21.3453 141.982 21.2049 141.995 21.0693 141.97C20.9337 141.946 20.8091 141.884 20.711 141.794C20.613 141.704 20.5461 141.589 20.5186 141.464C20.4911 141.339 20.5044 141.209 20.5567 141.091C20.609 140.973 20.698 140.871 20.8125 140.8C20.927 140.728 21.0618 140.69 21.2 140.689C21.2922 140.688 21.3837 140.705 21.469 140.737C21.5544 140.769 21.632 140.817 21.6974 140.877C21.7628 140.937 21.8148 141.008 21.8502 141.087C21.8856 141.166 21.9038 141.25 21.9038 141.336Z" fill="white"/>
<path d="M59.678 141.336C59.678 141.464 59.637 141.589 59.5601 141.695C59.4832 141.801 59.374 141.884 59.2461 141.933C59.1183 141.982 58.9776 141.995 58.8419 141.97C58.7062 141.945 58.5816 141.883 58.4837 141.793C58.3859 141.703 58.3192 141.587 58.2923 141.462C58.2653 141.336 58.2791 141.206 58.3321 141.088C58.385 140.97 58.4747 140.869 58.5897 140.798C58.7048 140.727 58.84 140.689 58.9784 140.689C59.0703 140.689 59.1613 140.706 59.2461 140.738C59.331 140.771 59.4081 140.818 59.4731 140.878C59.5381 140.938 59.5896 141.01 59.6248 141.088C59.6599 141.167 59.678 141.251 59.678 141.336Z" fill="white"/>
<path d="M79.9621 147.757C79.9621 141.52 83.0192 136.463 86.7928 136.463H79.5466C75.7773 136.463 72.7202 141.52 72.7202 147.757C72.7202 153.993 75.7773 159.046 79.5466 159.046H86.7928C83.0192 159.058 79.9621 154.005 79.9621 147.757Z" fill="black"/>
<path opacity="0.7" d="M79.9621 147.757C79.9621 141.52 83.0192 136.463 86.7928 136.463H79.5466C75.7773 136.463 72.7202 141.52 72.7202 147.757C72.7202 153.993 75.7773 159.046 79.5466 159.046H86.7928C83.0192 159.058 79.9621 154.005 79.9621 147.757Z" fill="#263238"/>
<path d="M86.7928 159.062C90.5653 159.062 93.6234 154.006 93.6234 147.768C93.6234 141.531 90.5653 136.475 86.7928 136.475C83.0203 136.475 79.9622 141.531 79.9622 147.768C79.9622 154.006 83.0203 159.062 86.7928 159.062Z" fill="#263238"/>
<path d="M87.3398 156.573C90.014 156.573 92.1818 152.631 92.1818 147.768C92.1818 142.906 90.014 138.964 87.3398 138.964C84.6656 138.964 82.4977 142.906 82.4977 147.768C82.4977 152.631 84.6656 156.573 87.3398 156.573Z" fill="white"/>
<path d="M86.8987 155.389C89.4582 155.389 91.533 151.977 91.533 147.768C91.533 143.56 89.4582 140.148 86.8987 140.148C84.3393 140.148 82.2644 143.56 82.2644 147.768C82.2644 151.977 84.3393 155.389 86.8987 155.389Z" fill="#263238"/>
<path d="M85.8812 153.331C87.7499 153.331 89.2647 150.84 89.2647 147.768C89.2647 144.696 87.7499 142.206 85.8812 142.206C84.0125 142.206 82.4977 144.696 82.4977 147.768C82.4977 150.84 84.0125 153.331 85.8812 153.331Z" fill="black"/>
<path opacity="0.5" d="M186.869 141.12V141.332C186.869 141.852 186.646 142.35 186.249 142.718C185.851 143.085 185.312 143.292 184.749 143.292H99.0591V139.16H184.749C185.312 139.16 185.851 139.366 186.249 139.734C186.646 140.102 186.869 140.6 186.869 141.12Z" fill="black"/>
<path d="M160.238 147.757C160.238 141.52 163.295 136.463 167.064 136.463H159.822C156.049 136.463 152.992 141.52 152.992 147.757C152.992 153.993 156.049 159.046 159.822 159.046H167.056C163.295 159.058 160.238 154.005 160.238 147.757Z" fill="black"/>
<path opacity="0.7" d="M160.238 147.757C160.238 141.52 163.295 136.463 167.064 136.463H159.822C156.049 136.463 152.992 141.52 152.992 147.757C152.992 153.993 156.049 159.046 159.822 159.046H167.056C163.295 159.058 160.238 154.005 160.238 147.757Z" fill="#263238"/>
<path d="M167.064 159.062C170.837 159.062 173.895 154.006 173.895 147.768C173.895 141.531 170.837 136.475 167.064 136.475C163.292 136.475 160.234 141.531 160.234 147.768C160.234 154.006 163.292 159.062 167.064 159.062Z" fill="#263238"/>
<path d="M167.616 156.573C170.29 156.573 172.458 152.631 172.458 147.768C172.458 142.906 170.29 138.964 167.616 138.964C164.941 138.964 162.774 142.906 162.774 147.768C162.774 152.631 164.941 156.573 167.616 156.573Z" fill="white"/>
<path d="M167.17 155.389C169.73 155.389 171.805 151.977 171.805 147.768C171.805 143.56 169.73 140.148 167.17 140.148C164.611 140.148 162.536 143.56 162.536 147.768C162.536 151.977 164.611 155.389 167.17 155.389Z" fill="#263238"/>
<path d="M166.153 153.331C168.021 153.331 169.536 150.84 169.536 147.768C169.536 144.696 168.021 142.206 166.153 142.206C164.284 142.206 162.769 144.696 162.769 147.768C162.769 150.84 164.284 153.331 166.153 153.331Z" fill="black"/>
<path d="M139.437 92.512C139.352 94.0212 139.203 95.4794 138.962 96.9651C138.753 98.4997 138.39 100.013 137.876 101.485C137.714 101.914 137.512 102.328 137.27 102.724C137.102 102.99 136.897 103.235 136.659 103.453L136.541 103.555L136.473 103.602L136.439 103.629L136.295 103.719L136.011 103.904C135.291 104.331 134.533 104.702 133.747 105.013C132.253 105.62 130.702 106.095 129.112 106.432L128.561 105.036C129.909 104.346 131.292 103.641 132.551 102.908C133.166 102.559 133.758 102.175 134.323 101.759L134.51 101.614L134.603 101.54C134.603 101.54 134.641 101.481 134.688 101.387C134.812 101.133 134.914 100.871 134.993 100.603C135.185 99.9581 135.336 99.3037 135.447 98.6429C135.578 97.9608 135.684 97.267 135.773 96.5614C135.947 95.1619 136.096 93.7272 136.197 92.3317L139.437 92.512Z" fill="#CE7A63"/>
<path d="M129.566 105.056L126.963 104.311L127.45 107.224C127.45 107.224 129.146 107.028 129.994 106.15L129.566 105.056Z" fill="#CE7A63"/>
<path d="M123.808 106.185L123.952 106.577C124.034 106.793 124.189 106.98 124.394 107.108C124.6 107.236 124.845 107.298 125.093 107.286L126.42 107.232L125.928 104.311L124.469 104.84C124.193 104.942 123.969 105.139 123.846 105.39C123.723 105.64 123.709 105.925 123.808 106.185Z" fill="#CE7A63"/>
<path d="M142.515 89.6857C142.515 90.5951 142.04 92.3905 141.633 93.739C141.332 94.7072 141.082 95.4442 141.082 95.4442L140.484 95.307L135.557 94.1545C135.481 91.8025 135.578 89.2427 138.101 87.7061C139.678 86.7418 142.502 88.0667 142.515 89.6857Z" fill="#263238"/>
<path opacity="0.3" d="M142.511 89.8425C142.188 89.5289 141.459 89.474 139.869 89.9405C137.592 90.6069 136.956 92.9118 136.927 94.4759L140.484 95.307L140.789 95.3814L141.082 95.4442C141.082 95.4442 141.205 95.0757 141.383 94.5151C141.455 94.2878 141.544 94.0212 141.629 93.7311C142.053 92.4631 142.348 91.1613 142.511 89.8425Z" fill="black"/>
<path d="M132.403 162.864L129.396 161.892L131.287 155.871L134.289 156.847L132.403 162.864Z" fill="#CE7A63"/>
<path d="M172.568 155.73L170.122 157.415L165.114 152.723L167.561 151.038L172.568 155.73Z" fill="#CE7A63"/>
<path d="M169.121 156.729L171.762 154.711C171.807 154.675 171.864 154.655 171.923 154.655C171.983 154.655 172.04 154.675 172.085 154.711L174.111 156.412C174.157 156.454 174.193 156.504 174.218 156.558C174.242 156.613 174.255 156.672 174.255 156.731C174.255 156.791 174.242 156.85 174.218 156.904C174.193 156.959 174.157 157.009 174.111 157.051L174.069 157.086C173.136 157.776 172.644 158.066 171.483 158.952C170.77 159.497 169.273 160.802 168.286 161.555C167.298 162.308 166.441 161.449 166.78 161.053C168.294 159.281 168.646 158.113 168.824 157.157C168.867 156.987 168.972 156.836 169.121 156.729Z" fill="#263238"/>
<path d="M129.193 161.022L132.534 162.312C132.594 162.336 132.643 162.377 132.675 162.429C132.707 162.481 132.72 162.542 132.712 162.602L132.335 165.326C132.32 165.435 132.259 165.534 132.165 165.602C132.071 165.669 131.952 165.7 131.834 165.687C131.79 165.682 131.748 165.672 131.707 165.655C130.524 165.212 129.969 164.993 128.502 164.424L123.999 162.68C122.778 162.206 123.041 160.967 123.575 161.057C126.047 161.473 127.641 161.335 128.616 160.994C128.71 160.964 128.809 160.95 128.908 160.955C129.006 160.959 129.103 160.982 129.193 161.022Z" fill="#263238"/>
<path opacity="0.2" d="M131.287 155.875L130.316 158.976L133.242 160.199L134.294 156.847L131.287 155.875Z" fill="black"/>
<path opacity="0.2" d="M167.565 151.038L165.114 152.723L167.696 155.142L170.143 153.456L167.565 151.038Z" fill="black"/>
<path d="M151.758 104.401L139.377 104.566C137.681 95.7029 137.257 91.4732 137.257 89.4387C137.255 88.9313 137.445 88.4391 137.793 88.0469C138.141 87.6548 138.627 87.3873 139.165 87.2906C139.92 87.1534 140.861 86.9966 141.807 86.875C142.129 86.8358 142.456 86.7966 142.778 86.7653C144.648 86.617 146.526 86.5921 148.4 86.6908C148.68 86.6908 148.956 86.7143 149.248 86.73C150.52 86.8045 151.682 86.9534 152.509 87.071C152.806 87.1153 153.072 87.267 153.249 87.4926C153.425 87.7183 153.498 87.9995 153.45 88.2745C153.452 88.294 153.452 88.3137 153.45 88.3333C153.085 89.9013 152.788 91.2929 152.551 92.5316C152.174 94.4916 151.936 96.091 151.796 97.4865C151.584 99.7868 151.572 102.099 151.758 104.401Z" fill="#263238"/>
<path opacity="0.1" d="M151.792 97.4982C151.169 95.7695 151.203 92.1827 151.873 91.0224L152.555 92.5394C152.169 94.5112 151.932 96.1027 151.792 97.4982Z" fill="black"/>
<path d="M139.377 104.566C139.377 104.566 137.257 121.23 135.345 131.614C133.831 139.744 130.007 156.667 130.007 156.667L134.972 158.294C134.972 158.294 140.658 140.654 141.654 133.119C145.661 122.257 148.544 104.484 148.544 104.484L139.377 104.566Z" fill="#017143"/>
<path d="M129.201 157.804L134.946 159.673L135.714 157.968L129.481 155.765L129.201 157.804Z" fill="#263238"/>
<path opacity="0.1" d="M145.653 109.517L143.795 112.806C143.117 115.283 143.278 121.312 144.139 125.122C145.682 119.38 146.916 113.335 147.683 109.278L145.653 109.517Z" fill="black"/>
<path d="M142.065 104.566C142.065 104.566 144.283 123.217 148.425 133.574C150.503 138.768 165.915 154.166 165.915 154.166L169.392 151.594C169.392 151.594 159.619 136.059 155.345 131.994C153.602 122.978 155.795 109.462 151.745 104.405L142.065 104.566Z" fill="#017143"/>
<path d="M166.208 155.267L170.287 152.178L169.184 150.504L164.72 154.099L166.208 155.267Z" fill="#263238"/>
<path d="M151.953 103.731L152.526 104.746C152.568 104.825 152.47 104.911 152.326 104.911L139.335 105.083C139.22 105.083 139.131 105.032 139.119 104.97L138.996 103.947C138.996 103.876 139.085 103.813 139.203 103.813L151.745 103.645C151.785 103.643 151.825 103.649 151.861 103.664C151.897 103.679 151.929 103.702 151.953 103.731Z" fill="#263238"/>
<path d="M150.27 105.056H150.613C150.677 105.056 150.728 105.021 150.724 104.985L150.541 103.653C150.541 103.613 150.482 103.586 150.414 103.586H150.096C150.028 103.586 149.977 103.621 149.986 103.657L150.164 104.985C150.143 105.017 150.206 105.056 150.27 105.056Z" fill="#017143"/>
<path d="M140.268 105.181H140.607C140.675 105.181 140.721 105.146 140.717 105.107L140.543 103.778C140.543 103.739 140.476 103.708 140.408 103.708H140.068C140.001 103.708 139.95 103.743 139.954 103.782L140.132 105.111C140.141 105.15 140.2 105.181 140.268 105.181Z" fill="#017143"/>
<path d="M145.271 105.107H145.61C145.678 105.107 145.729 105.072 145.725 105.032L145.547 103.704C145.547 103.66 145.483 103.629 145.415 103.633H145.076C145.008 103.633 144.961 103.668 144.961 103.708L145.139 105.036C145.135 105.083 145.203 105.107 145.271 105.107Z" fill="#017143"/>
<path d="M122.807 92.8334L141.184 90.501L143.728 107.181L125.682 109.47L122.807 92.8334Z" fill="#017143"/>
<path opacity="0.8" d="M122.807 92.8334L141.184 90.501L143.728 107.181L125.682 109.47L122.807 92.8334Z" fill="white"/>
<path opacity="0.2" d="M141.436 89.6956L136.529 90.3371L139.161 107.545L144.068 106.903L141.436 89.6956Z" fill="#017143"/>
<path d="M146.394 105.08L143.85 104.158L144.101 107.098C144.101 107.098 145.797 107.02 146.708 106.201L146.394 105.08Z" fill="#CE7A63"/>
<path d="M154.395 90.4422C155.078 92.2062 155.667 93.9702 156.168 95.7734C156.422 96.679 156.66 97.5884 156.85 98.5174C156.944 98.9878 157.024 99.4661 157.084 99.9639C157.152 100.484 157.176 101.008 157.156 101.532C157.144 101.873 157.087 102.211 156.986 102.539C156.847 102.943 156.614 103.314 156.303 103.625C155.85 104.074 155.311 104.442 154.713 104.711C153.735 105.15 152.705 105.483 151.644 105.703C149.66 106.128 147.637 106.379 145.602 106.452L145.402 104.974C146.331 104.77 147.281 104.542 148.205 104.303C149.129 104.064 150.049 103.798 150.931 103.5C151.774 103.232 152.586 102.889 153.357 102.477C153.637 102.325 153.886 102.13 154.094 101.9C154.149 101.822 154.149 101.802 154.141 101.802C154.149 101.686 154.149 101.57 154.141 101.454C154.125 101.074 154.081 100.695 154.01 100.321C153.942 99.9286 153.848 99.4896 153.747 99.0584C153.535 98.2195 153.297 97.361 153.03 96.5026C152.5 94.8013 151.902 93.0726 151.304 91.4066L154.395 90.4422Z" fill="#CE7A63"/>
<path d="M141.506 105.609L141.705 106.291C141.765 106.51 141.9 106.705 142.091 106.846C142.281 106.988 142.517 107.068 142.761 107.075L144.126 107.11L143.876 104.174L142.485 104.319C142.338 104.333 142.194 104.373 142.064 104.438C141.933 104.503 141.817 104.591 141.724 104.698C141.63 104.804 141.56 104.926 141.517 105.058C141.475 105.189 141.461 105.327 141.476 105.464C141.482 105.513 141.492 105.561 141.506 105.609Z" fill="#CE7A63"/>
<path d="M152.95 87.1573C154.374 87.6943 155.54 92.022 155.54 92.022L151.605 94.864C151.605 94.864 148.816 90.8264 149.384 89.0742C149.867 87.5924 151.135 86.4791 152.95 87.1573Z" fill="#263238"/>
<path d="M168.158 157.952H168.108C168.036 157.948 167.968 157.927 167.908 157.891C167.848 157.856 167.798 157.807 167.764 157.749C167.739 157.715 167.724 157.676 167.72 157.636C167.716 157.595 167.724 157.554 167.743 157.517C167.917 157.204 169.015 157.078 169.134 157.067C169.148 157.064 169.162 157.066 169.175 157.071C169.188 157.077 169.199 157.086 169.206 157.098C169.214 157.109 169.218 157.122 169.218 157.135C169.218 157.148 169.214 157.161 169.206 157.172C168.977 157.459 168.532 157.929 168.158 157.952ZM168.985 157.219C168.561 157.278 167.963 157.408 167.879 157.58C167.868 157.595 167.863 157.612 167.863 157.629C167.863 157.646 167.868 157.663 167.879 157.678C167.899 157.718 167.93 157.753 167.97 157.778C168.009 157.802 168.056 157.817 168.103 157.819C168.315 157.819 168.655 157.608 168.994 157.219H168.985Z" fill="#263238"/>
<path d="M169.083 157.192C168.714 157.192 167.976 157.07 167.811 156.8C167.784 156.753 167.776 156.699 167.787 156.647C167.797 156.595 167.827 156.548 167.87 156.514C167.907 156.476 167.953 156.446 168.005 156.426C168.056 156.407 168.111 156.398 168.167 156.4C168.612 156.4 169.176 157.031 169.193 157.067C169.199 157.076 169.203 157.087 169.203 157.098C169.203 157.109 169.199 157.12 169.193 157.129C169.19 157.141 169.182 157.151 169.173 157.159C169.163 157.166 169.151 157.171 169.138 157.172L169.083 157.192ZM168.141 156.541C168.082 156.547 168.026 156.572 167.985 156.612C167.921 156.675 167.934 156.714 167.951 156.745C168.048 156.918 168.629 157.059 169.002 157.059C168.79 156.812 168.501 156.63 168.175 156.537L168.141 156.541Z" fill="#263238"/>
<path d="M127.484 160.959C127.248 160.888 127.043 160.751 126.895 160.567C126.861 160.513 126.841 160.453 126.835 160.39C126.829 160.328 126.838 160.265 126.861 160.206C126.872 160.173 126.893 160.142 126.922 160.118C126.95 160.094 126.984 160.077 127.022 160.069C127.412 160.003 128.332 160.916 128.51 161.1C128.519 161.112 128.523 161.125 128.523 161.139C128.523 161.153 128.519 161.167 128.51 161.179C128.503 161.191 128.492 161.201 128.478 161.206C128.464 161.212 128.449 161.213 128.434 161.21C128.109 161.156 127.791 161.072 127.484 160.959ZM127.192 160.222C127.148 160.203 127.1 160.195 127.052 160.199C127.052 160.199 127.013 160.199 126.997 160.246C126.979 160.286 126.973 160.33 126.977 160.374C126.982 160.417 126.997 160.459 127.022 160.497C127.153 160.708 127.607 160.908 128.252 161.038C127.949 160.717 127.594 160.442 127.2 160.222H127.192Z" fill="#263238"/>
<path d="M128.43 161.202H128.404C128.095 160.916 127.59 160.058 127.764 159.783C127.802 159.724 127.883 159.662 128.065 159.709C128.748 159.893 128.54 161.116 128.527 161.167C128.527 161.18 128.522 161.192 128.513 161.202C128.503 161.211 128.49 161.217 128.476 161.218C128.468 161.22 128.459 161.219 128.45 161.216C128.442 161.213 128.435 161.209 128.43 161.202ZM128.09 159.834H128.048C127.98 159.814 127.929 159.834 127.912 159.834C127.811 159.995 128.137 160.642 128.434 160.987C128.43 160.685 128.472 159.991 128.09 159.834Z" fill="#263238"/>
<path d="M141.226 74.9622C141.226 74.9622 139.53 77.5846 140.802 78.7332C142.074 79.8818 142.447 75.8089 142.447 75.8089L141.226 74.9622Z" fill="#263238"/>
<path d="M149.104 81.1166C149.104 81.1166 151.224 78.0511 150.342 75.0053C149.46 71.9594 145.339 73.9273 143.6 73.0923C142.963 72.7344 142.285 72.4438 141.578 72.226C141.464 72.1949 141.344 72.1882 141.228 72.2066C141.111 72.2249 141 72.2678 140.904 72.3318C140.48 72.6768 141.217 73.3236 141.446 73.5666C141.306 73.416 141.143 73.2841 140.963 73.1746C140.738 73.0374 140.437 73.0257 140.539 73.3746C140.713 73.7494 141.026 74.055 141.421 74.237C141.256 74.1507 140.276 73.6921 140.208 73.9782C140.2 74.0476 140.22 74.1175 140.263 74.1742C140.899 75.2718 142.18 76.6517 143.655 76.6791C145.432 76.7026 147.128 81.3243 149.104 81.1166Z" fill="#263238"/>
<path d="M149.854 81.2538C149.744 82.2886 148.082 82.3004 148.082 82.3004C147.81 82.8927 147.358 83.3993 146.78 83.7586C146.729 84.3836 146.752 85.0119 146.848 85.6324C147.128 86.6085 147.484 86.9456 147.929 87.1651L147.573 87.4905C146.891 87.8541 146.121 88.0523 145.334 88.0667L144.868 87.8158L144.258 87.906C142.562 87.3925 142.986 86.338 142.986 86.338C143.295 85.6219 143.311 84.8262 143.032 84.0997C141.404 83.6293 140.738 82.32 140.509 80.117C140.28 77.9139 141.62 75.805 141.62 75.805C143.46 77.4474 147.107 76.393 147.107 76.393C146.95 79.4819 148.51 80.6226 148.51 80.6226C149.023 80.1993 149.96 80.2228 149.854 81.2538Z" fill="#CE7A63"/>
<path d="M143.935 81.536C144.373 81.4228 144.751 81.1665 144.999 80.8147C145.02 80.787 145.027 80.7531 145.021 80.7202C145.015 80.6873 144.995 80.658 144.966 80.6383C144.951 80.6284 144.935 80.6213 144.917 80.6173C144.9 80.6134 144.882 80.6126 144.864 80.6152C144.846 80.6177 144.829 80.6235 144.814 80.6322C144.799 80.6409 144.785 80.6523 144.775 80.6658C144.632 80.9035 144.41 81.0927 144.142 81.2056C143.874 81.3184 143.575 81.3491 143.287 81.293C143.252 81.2831 143.215 81.2863 143.183 81.3017C143.152 81.3172 143.128 81.3436 143.117 81.3753C143.106 81.4075 143.109 81.4424 143.126 81.4724C143.143 81.5024 143.171 81.5252 143.206 81.536C143.445 81.5938 143.696 81.5938 143.935 81.536Z" fill="#263238"/>
<path d="M144.419 78.839C144.419 79.039 144.334 79.2114 144.19 79.231C144.046 79.2506 143.914 79.086 143.897 78.8861C143.88 78.6862 143.986 78.4941 144.13 78.4941C144.275 78.4941 144.402 78.6352 144.419 78.839Z" fill="#263238"/>
<path d="M141.824 78.7371C141.824 78.937 141.739 79.1095 141.595 79.1291C141.451 79.1487 141.323 78.9841 141.307 78.7842C141.29 78.5842 141.391 78.4118 141.535 78.3922C141.68 78.3726 141.811 78.5333 141.824 78.7371Z" fill="#263238"/>
<path d="M142.511 80.6775L142.481 79.2271L141.701 80.4502C141.809 80.5419 141.937 80.6099 142.078 80.6493C142.218 80.6887 142.366 80.6983 142.511 80.6775Z" fill="#BA4D3C"/>
<path d="M145.602 77.616C145.62 77.6114 145.637 77.6034 145.652 77.5925C145.673 77.5812 145.691 77.5662 145.705 77.5484C145.72 77.5305 145.73 77.5102 145.736 77.4885C145.741 77.4669 145.742 77.4445 145.738 77.4226C145.734 77.4008 145.725 77.3799 145.712 77.3612C145.571 77.1424 145.366 76.9646 145.121 76.8482C144.876 76.7318 144.6 76.6813 144.325 76.7026C144.302 76.705 144.278 76.7119 144.257 76.7227C144.237 76.7336 144.218 76.7482 144.204 76.7658C144.189 76.7834 144.178 76.8035 144.172 76.825C144.166 76.8465 144.165 76.8689 144.168 76.8908C144.175 76.9349 144.2 76.9749 144.238 77.0021C144.276 77.0293 144.324 77.0414 144.372 77.0358C144.577 77.024 144.782 77.0646 144.963 77.1531C145.145 77.2416 145.297 77.3746 145.402 77.5376C145.422 77.5686 145.452 77.593 145.488 77.6071C145.524 77.6212 145.564 77.6243 145.602 77.616Z" fill="#263238"/>
<path d="M141.001 77.4553C141.049 77.4438 141.09 77.4157 141.116 77.3769C141.192 77.2706 141.299 77.1869 141.426 77.1362C141.552 77.0854 141.692 77.0696 141.828 77.0907C141.851 77.0953 141.876 77.0954 141.899 77.0911C141.923 77.0868 141.945 77.0782 141.965 77.0657C141.984 77.0533 142.001 77.0373 142.014 77.0187C142.027 77.0001 142.036 76.9793 142.04 76.9574C142.049 76.9138 142.038 76.8688 142.011 76.8321C141.984 76.7954 141.943 76.77 141.896 76.7614C141.686 76.7255 141.469 76.7489 141.274 76.8286C141.079 76.9084 140.914 77.0407 140.802 77.2083C140.778 77.247 140.772 77.2927 140.783 77.3358C140.795 77.3789 140.825 77.4161 140.866 77.4396C140.907 77.4601 140.955 77.4657 141.001 77.4553Z" fill="#263238"/>
<path d="M148.62 87.3023L147.709 88.1255L146.085 89.5994L145.474 88.7018L144.868 87.8158L146.988 85.4795L148.531 87.2043L148.62 87.3023Z" fill="white"/>
<path d="M144.868 87.8158L144.397 88.541L143.706 89.5994L142.121 86.9534L143.134 85.8519L144.868 87.8158Z" fill="white"/>
</svg>
