<svg width="451" height="431" viewBox="0 0 451 431" fill="none" xmlns="http://www.w3.org/2000/svg">
<path opacity="0.7" d="M61.2727 144.032C61.2727 144.032 36.1249 206.096 71.4653 268.591C106.806 331.086 179.597 364.1 237.857 392.331C296.117 420.561 356.615 406.812 385.361 360.575C414.108 314.337 374.682 281.331 374.627 215.397C374.573 149.462 384.955 132.007 347.567 76.3042C310.18 20.6018 218.527 8.26658 149.218 49.5822C79.908 90.8979 61.2727 144.032 61.2727 144.032Z" fill="white"/>
<path d="M62.238 372.091H252.731C253.498 370.919 254.274 369.746 255.068 368.6C275.561 338.792 308.376 317.535 344.212 307.562C360.268 303.096 377.658 300.441 390.557 290.27C403.834 279.814 409.932 263.126 412.566 246.877C415.768 227.206 414.036 205.147 400.064 190.381C383.657 173.047 356.164 171.098 334.786 159.737C297.994 140.17 283.733 95.613 250.26 71.2012C229.108 55.78 200.569 49.8064 174.988 53.1854C138.737 57.9867 104.632 81.2004 94.3943 115.249C91.4512 125.166 90.4002 135.509 91.2915 145.781C92.9241 166.082 97.4972 186.64 93.1856 206.578C88.4321 228.551 73.477 247.092 64.5381 267.858C53.4075 293.718 51.9101 322.681 56.6276 350.248C57.8902 357.659 59.7663 364.963 62.238 372.091Z" fill="#07B86F"/>
<path opacity="0.7" d="M62.238 372.091H252.731C253.498 370.919 254.274 369.746 255.068 368.6C275.561 338.792 308.376 317.535 344.212 307.562C360.268 303.096 377.658 300.441 390.557 290.27C403.834 279.814 409.932 263.126 412.566 246.877C415.768 227.206 414.036 205.147 400.064 190.381C383.657 173.047 356.164 171.098 334.786 159.737C297.994 140.17 283.733 95.613 250.26 71.2012C229.108 55.78 200.569 49.8064 174.988 53.1854C138.737 57.9867 104.632 81.2004 94.3943 115.249C91.4512 125.166 90.4002 135.509 91.2915 145.781C92.9241 166.082 97.4972 186.64 93.1856 206.578C88.4321 228.551 73.477 247.092 64.5381 267.858C53.4075 293.718 51.9101 322.681 56.6276 350.248C57.8902 357.659 59.7663 364.963 62.238 372.091Z" fill="white"/>
<path d="M37.875 372.091H415.2" stroke="#263238" stroke-linecap="round" stroke-linejoin="round"/>
<path d="M251.658 97.7422V84.2088L241.05 83.3468C240.43 81.2302 239.552 79.1906 238.435 77.2697L245.281 69.5117L235.269 59.9435L227.151 66.4861C225.157 65.4138 223.038 64.5717 220.837 63.9776L219.935 53.8405H205.656L204.754 63.9776C202.553 64.5717 200.433 65.4138 198.44 66.4861L190.322 59.9435L180.31 69.5117L187.156 77.2697C186.038 79.1906 185.16 81.2302 184.54 83.3468L173.933 84.2088V97.7422L184.54 98.6042C185.164 100.706 186.041 102.731 187.156 104.638L180.31 112.396L190.322 121.964L198.44 115.422C200.433 116.494 202.553 117.336 204.754 117.93L205.656 128.067H219.817L220.719 117.93C222.935 117.337 225.07 116.495 227.078 115.422L235.196 121.964L245.209 112.396L238.362 104.638C239.477 102.731 240.355 100.706 240.978 98.6042L251.658 97.7422ZM212.782 106.698C209.528 106.698 206.347 105.776 203.641 104.049C200.936 102.321 198.827 99.8653 197.582 96.9924C196.336 94.1194 196.011 90.958 196.645 87.9081C197.28 84.8582 198.847 82.0566 201.148 79.8577C203.449 77.6588 206.381 76.1614 209.572 75.5547C212.764 74.948 216.072 75.2594 219.078 76.4494C222.084 77.6395 224.654 79.6547 226.462 82.2403C228.269 84.8259 229.234 87.8658 229.234 90.9755C229.233 93.0428 228.806 95.0897 227.976 96.999C227.147 98.9083 225.931 100.643 224.4 102.103C222.869 103.563 221.051 104.721 219.051 105.509C217.052 106.298 214.909 106.702 212.746 106.698H212.782Z" stroke="#263238" stroke-linecap="round" stroke-linejoin="round"/>
<path d="M403.816 230.016V223.534L398.729 223.111C398.429 222.097 398.009 221.12 397.475 220.198L400.758 216.465L395.978 211.88L392.081 215.017C391.118 214.504 390.095 214.102 389.032 213.819L388.59 208.957H381.798L381.365 213.819C380.302 214.1 379.279 214.502 378.317 215.017L374.411 211.88L369.612 216.465L372.895 220.198C372.355 221.118 371.931 222.096 371.633 223.111L366.545 223.534V230.016L371.633 230.438C371.931 231.454 372.355 232.432 372.895 233.352L369.585 237.05L374.384 241.636L378.289 238.498C379.252 239.013 380.275 239.416 381.338 239.696L381.771 244.558H388.563L389.005 239.696C390.068 239.414 391.091 239.012 392.054 238.498L395.951 241.636L400.758 237.05L397.475 233.318C398.009 232.396 398.429 231.418 398.729 230.404L403.816 230.016ZM385.172 234.326C383.61 234.328 382.084 233.887 380.784 233.059C379.485 232.231 378.472 231.054 377.874 229.676C377.275 228.298 377.117 226.781 377.421 225.317C377.724 223.854 378.475 222.509 379.579 221.453C380.682 220.398 382.088 219.678 383.62 219.387C385.151 219.095 386.738 219.244 388.181 219.814C389.624 220.385 390.857 221.352 391.724 222.592C392.592 223.833 393.055 225.291 393.055 226.784C393.054 227.774 392.849 228.755 392.451 229.669C392.053 230.584 391.471 231.415 390.737 232.114C390.003 232.814 389.133 233.369 388.175 233.747C387.217 234.125 386.19 234.319 385.154 234.317L385.172 234.326Z" stroke="#263238" stroke-linecap="round" stroke-linejoin="round"/>
<path d="M398.684 111.888C399.404 108.908 399.304 105.802 398.394 102.871C397.484 99.9393 395.795 97.2833 393.491 95.1616C391.188 93.0398 388.348 91.5247 385.249 90.7639C382.15 90.0031 378.898 90.0225 375.809 90.8203C373.928 87.6316 371.018 85.1093 367.514 83.6295C364.01 82.1497 360.1 81.7917 356.366 82.6087C352.632 83.4257 349.274 85.3741 346.793 88.1633C344.311 90.9526 342.84 94.4334 342.598 98.087C340.634 97.7282 338.614 97.7611 336.665 98.1836C334.716 98.6061 332.879 99.4092 331.269 100.542C329.66 101.676 328.313 103.114 327.314 104.769C326.314 106.423 325.683 108.257 325.46 110.155C323.449 110.357 321.59 111.269 320.246 112.712C318.901 114.155 318.169 116.025 318.191 117.957C318.214 119.889 318.99 121.743 320.368 123.157C321.745 124.571 323.625 125.443 325.64 125.602H393.543C395.205 125.59 396.824 125.091 398.18 124.172C399.536 123.252 400.564 121.957 401.125 120.461C401.686 118.965 401.753 117.34 401.316 115.807C400.879 114.274 399.961 112.906 398.684 111.888Z" stroke="#263238" stroke-linecap="round" stroke-linejoin="round"/>
<path d="M361.368 119.671V137.558" stroke="#263238" stroke-linecap="round" stroke-linejoin="round"/>
<path d="M361.368 108.948V116.094" stroke="#263238" stroke-linecap="round" stroke-linejoin="round"/>
<path d="M361.368 102.259V106.086" stroke="#263238" stroke-linecap="round" stroke-linejoin="round"/>
<path d="M357.833 135.472L361.368 139.653L364.904 135.472" stroke="#263238" stroke-linecap="round" stroke-linejoin="round"/>
<path d="M191.801 321.655C192.519 318.676 192.418 315.569 191.506 312.638C190.595 309.707 188.905 307.052 186.601 304.93C184.296 302.809 181.456 301.294 178.358 300.533C175.259 299.772 172.006 299.791 168.917 300.588C167.038 297.397 164.128 294.873 160.623 293.392C157.119 291.911 153.207 291.553 149.472 292.371C145.737 293.189 142.379 295.14 139.9 297.933C137.42 300.725 135.952 304.208 135.715 307.863C134.823 307.7 133.917 307.616 133.009 307.613C129.441 307.611 125.996 308.865 123.334 311.135C120.672 313.406 118.978 316.534 118.577 319.923C116.566 320.124 114.707 321.035 113.362 322.477C112.017 323.919 111.283 325.789 111.305 327.721C111.326 329.653 112.101 331.507 113.478 332.922C114.854 334.336 116.734 335.209 118.748 335.37H186.714C188.374 335.353 189.989 334.85 191.341 333.928C192.693 333.007 193.717 331.711 194.274 330.217C194.832 328.722 194.896 327.1 194.459 325.569C194.021 324.038 193.103 322.672 191.828 321.655H191.801Z" stroke="#263238" stroke-linecap="round" stroke-linejoin="round"/>
<path d="M154.458 331.999V314.121" stroke="#263238" stroke-linecap="round" stroke-linejoin="round"/>
<path d="M154.458 342.731V335.577" stroke="#263238" stroke-linecap="round" stroke-linejoin="round"/>
<path d="M154.458 349.42V345.593" stroke="#263238" stroke-linecap="round" stroke-linejoin="round"/>
<path d="M157.994 316.207L154.458 312.027L150.922 316.207" stroke="#263238" stroke-linecap="round" stroke-linejoin="round"/>
<path d="M48.239 94.7338H275.047C276.061 94.7338 277.034 95.1189 277.751 95.8043C278.468 96.4897 278.871 97.4193 278.871 98.3887V108.612H44.4146V98.3887C44.4146 97.4193 44.8175 96.4897 45.5347 95.8043C46.2519 95.1189 47.2247 94.7338 48.239 94.7338Z" fill="#07B86F" stroke="#263238" stroke-linecap="round" stroke-linejoin="round"/>
<path d="M291.644 111.172H54.6792V270.53H291.644V111.172Z" fill="white" stroke="#263238" stroke-linecap="round" stroke-linejoin="round"/>
<path d="M295.27 101.664C295.27 102.346 295.058 103.013 294.662 103.58C294.265 104.147 293.702 104.589 293.042 104.85C292.383 105.111 291.658 105.179 290.958 105.046C290.258 104.913 289.615 104.585 289.11 104.102C288.606 103.62 288.262 103.006 288.123 102.337C287.984 101.668 288.055 100.975 288.328 100.345C288.601 99.7147 289.064 99.1762 289.657 98.7974C290.251 98.4185 290.948 98.2163 291.662 98.2163C292.619 98.2163 293.536 98.5795 294.213 99.2262C294.89 99.8728 295.27 100.75 295.27 101.664Z" fill="white" stroke="#263238" stroke-linecap="round" stroke-linejoin="round"/>
<path d="M282.497 101.664C282.497 102.346 282.286 103.013 281.889 103.58C281.493 104.147 280.929 104.589 280.27 104.85C279.611 105.111 278.885 105.179 278.185 105.046C277.485 104.913 276.843 104.585 276.338 104.102C275.833 103.62 275.49 103.006 275.351 102.337C275.211 101.668 275.283 100.975 275.556 100.345C275.829 99.7147 276.291 99.1762 276.885 98.7974C277.478 98.4185 278.176 98.2163 278.889 98.2163C279.846 98.2163 280.764 98.5795 281.441 99.2262C282.117 99.8728 282.497 100.75 282.497 101.664Z" fill="white" stroke="#263238" stroke-linecap="round" stroke-linejoin="round"/>
<path d="M269.698 101.664C269.698 102.346 269.486 103.013 269.09 103.58C268.693 104.147 268.13 104.589 267.471 104.85C266.811 105.111 266.086 105.179 265.386 105.046C264.686 104.913 264.043 104.585 263.539 104.102C263.034 103.62 262.69 103.006 262.551 102.337C262.412 101.668 262.483 100.975 262.757 100.345C263.03 99.7147 263.492 99.1762 264.085 98.7974C264.679 98.4185 265.376 98.2163 266.09 98.2163C267.047 98.2163 267.965 98.5795 268.641 99.2262C269.318 99.8728 269.698 100.75 269.698 101.664Z" fill="white" stroke="#263238" stroke-linecap="round" stroke-linejoin="round"/>
<path d="M284.464 118.008H275.083" stroke="#263238" stroke-width="2" stroke-linecap="round" stroke-linejoin="round"/>
<path d="M284.464 121.645H275.083" stroke="#263238" stroke-width="2" stroke-linecap="round" stroke-linejoin="round"/>
<path d="M284.464 125.283H275.083" stroke="#263238" stroke-width="2" stroke-linecap="round" stroke-linejoin="round"/>
<path d="M71.0869 212.035H142.101" stroke="#263238" stroke-width="2" stroke-linecap="round" stroke-linejoin="round"/>
<path d="M71.0869 217.388H142.101" stroke="#263238" stroke-width="2" stroke-linecap="round" stroke-linejoin="round"/>
<path d="M71.0869 222.836H127.083" stroke="#263238" stroke-width="2" stroke-linecap="round" stroke-linejoin="round"/>
<path d="M221.676 112.965V113.396" stroke="#263238" stroke-linecap="round" stroke-linejoin="round"/>
<path d="M221.676 115.982V266.168" stroke="#263238" stroke-linecap="round" stroke-linejoin="round" stroke-dasharray="1 3"/>
<path d="M221.676 267.461V267.892" stroke="#263238" stroke-linecap="round" stroke-linejoin="round"/>
<path d="M57.5298 234.792H57.9808" stroke="#263238" stroke-linecap="round" stroke-linejoin="round"/>
<path d="M60.6777 234.792H286.214" stroke="#263238" stroke-linecap="round" stroke-linejoin="round" stroke-dasharray="1 2.99"/>
<path d="M287.567 234.792H288.018" stroke="#263238" stroke-linecap="round" stroke-linejoin="round"/>
<path d="M223.236 233.3H220.124V236.274H223.236V233.3Z" fill="white" stroke="#263238" stroke-linecap="round" stroke-linejoin="round"/>
<path d="M209.255 206.225H167.709" stroke="#263238" stroke-linecap="round" stroke-linejoin="round"/>
<path d="M210.058 224.585C210.058 224.585 210.058 206.13 188.482 206.13C166.906 206.13 166.87 224.585 166.87 224.585" stroke="#263238" stroke-linecap="round" stroke-linejoin="round"/>
<path d="M210.058 226.327C211.064 226.327 211.88 225.547 211.88 224.585C211.88 223.624 211.064 222.844 210.058 222.844C209.052 222.844 208.236 223.624 208.236 224.585C208.236 225.547 209.052 226.327 210.058 226.327Z" fill="#07B86F" stroke="#263238" stroke-linecap="round" stroke-linejoin="round"/>
<path d="M165.066 224.585C165.066 224.245 165.172 223.911 165.37 223.628C165.568 223.344 165.85 223.123 166.18 222.993C166.509 222.862 166.872 222.828 167.222 222.895C167.572 222.961 167.893 223.125 168.146 223.366C168.398 223.608 168.57 223.915 168.639 224.249C168.709 224.584 168.673 224.93 168.537 225.245C168.4 225.56 168.169 225.83 167.872 226.019C167.576 226.208 167.227 226.309 166.87 226.309C166.391 226.309 165.933 226.128 165.594 225.805C165.256 225.481 165.066 225.043 165.066 224.585Z" fill="#07B86F" stroke="#263238" stroke-linecap="round" stroke-linejoin="round"/>
<path d="M208.461 207.656H211.654V204.604H208.461V207.656Z" fill="#07B86F" stroke="#263238" stroke-linecap="round" stroke-linejoin="round"/>
<path d="M186.886 207.656H190.079V204.604H186.886V207.656Z" fill="#07B86F" stroke="#263238" stroke-linecap="round" stroke-linejoin="round"/>
<path d="M165.31 207.656H168.503V204.604H165.31V207.656Z" fill="#07B86F" stroke="#263238" stroke-linecap="round" stroke-linejoin="round"/>
<path d="M96.9018 150.738V144.635L92.1303 144.247C91.847 143.293 91.4506 142.374 90.9486 141.506L94.0335 138.006L89.5235 133.696L85.8523 136.644C84.9476 136.158 83.9844 135.779 82.984 135.515L82.5691 130.946H76.201L75.786 135.515C74.7881 135.778 73.8278 136.157 72.9267 136.644L69.2555 133.696L64.7455 138.006L67.8304 141.506C67.3247 142.372 66.9281 143.292 66.6488 144.247L61.8682 144.635V150.738L66.6488 151.126C66.9297 152.08 67.3262 153 67.8304 153.867L64.7455 157.367L69.2555 161.677L72.9267 158.729C73.8221 159.214 74.7763 159.594 75.768 159.858L76.1829 164.426H82.56L82.975 159.858C83.9723 159.593 84.9324 159.214 85.8343 158.729L89.5055 161.677L94.0154 157.367L90.9306 153.867C91.431 152.999 91.8273 152.079 92.1122 151.126L96.9018 150.738ZM79.376 154.772C77.9095 154.772 76.476 154.357 75.2567 153.578C74.0374 152.799 73.0871 151.693 72.5259 150.398C71.9648 149.103 71.8179 147.679 72.104 146.304C72.3901 144.93 73.0963 143.667 74.1332 142.676C75.1701 141.685 76.4912 141.01 77.9295 140.737C79.3678 140.464 80.8586 140.604 82.2134 141.14C83.5682 141.676 84.7262 142.585 85.5409 143.75C86.3556 144.915 86.7904 146.285 86.7904 147.686C86.7904 149.566 86.0093 151.368 84.6188 152.697C83.2283 154.026 81.3424 154.772 79.376 154.772Z" fill="#07B86F" stroke="#263238" stroke-linecap="round" stroke-linejoin="round"/>
<path d="M118.586 164.409V160.237L115.312 159.961C115.124 159.309 114.854 158.681 114.509 158.091L116.62 155.694L113.526 152.746L111.018 154.763C110.399 154.435 109.742 154.174 109.061 153.988L108.781 150.85H104.416L104.127 153.979C103.446 154.166 102.789 154.426 102.17 154.755L99.6623 152.738L96.5684 155.686L98.6881 158.082C98.3366 158.671 98.0638 159.299 97.8763 159.953L94.6021 160.229V164.401L97.8763 164.668C98.0622 165.322 98.335 165.951 98.6881 166.538L96.5684 168.952L99.6623 171.9L102.17 169.883C102.789 170.212 103.446 170.472 104.127 170.659L104.416 173.779H108.781L109.061 170.659C109.742 170.472 110.399 170.212 111.018 169.883L113.526 171.9L116.62 168.952L114.554 166.547C114.901 165.957 115.17 165.329 115.357 164.676L118.586 164.409ZM106.599 167.168C105.594 167.169 104.61 166.886 103.774 166.353C102.937 165.821 102.285 165.063 101.9 164.176C101.514 163.289 101.413 162.312 101.609 161.37C101.804 160.428 102.288 159.562 102.999 158.883C103.71 158.204 104.615 157.741 105.601 157.554C106.587 157.367 107.609 157.464 108.537 157.833C109.465 158.201 110.258 158.824 110.816 159.624C111.373 160.423 111.67 161.363 111.668 162.323C111.666 163.607 111.131 164.838 110.181 165.746C109.23 166.654 107.942 167.165 106.599 167.168Z" fill="#07B86F" stroke="#263238" stroke-linecap="round" stroke-linejoin="round"/>
<path d="M230.587 244.929H265.522" stroke="#263238" stroke-width="2" stroke-linecap="round" stroke-linejoin="round"/>
<path d="M230.587 250.282H265.522" stroke="#263238" stroke-width="2" stroke-linecap="round" stroke-linejoin="round"/>
<path d="M230.587 255.73H250.504" stroke="#263238" stroke-width="2" stroke-linecap="round" stroke-linejoin="round"/>
<path d="M184.559 257.953H166.167C164.971 257.953 163.823 257.499 162.978 256.691C162.132 255.883 161.657 254.787 161.657 253.643C161.657 252.5 162.132 251.404 162.978 250.596C163.823 249.788 164.971 249.333 166.167 249.333H184.559C185.755 249.333 186.902 249.788 187.748 250.596C188.593 251.404 189.069 252.5 189.069 253.643C189.069 254.787 188.593 255.883 187.748 256.691C186.902 257.499 185.755 257.953 184.559 257.953Z" fill="#07B86F" stroke="#263238" stroke-linecap="round" stroke-linejoin="round"/>
<path d="M218.834 257.953H200.443C199.246 257.953 198.099 257.499 197.254 256.691C196.408 255.883 195.933 254.787 195.933 253.643C195.933 252.5 196.408 251.404 197.254 250.596C198.099 249.788 199.246 249.333 200.443 249.333H218.834C220.031 249.333 221.178 249.788 222.023 250.596C222.869 251.404 223.344 252.5 223.344 253.643C223.344 254.787 222.869 255.883 222.023 256.691C221.178 257.499 220.031 257.953 218.834 257.953Z" fill="#07B86F" stroke="#263238" stroke-linecap="round" stroke-linejoin="round"/>
<path d="M272.143 165.478H233.14V202.751H272.143V165.478Z" fill="white" stroke="#263238" stroke-linecap="round" stroke-linejoin="round"/>
<path d="M233.14 165.478L272.143 202.751" stroke="#263238" stroke-linecap="round" stroke-linejoin="round"/>
<path d="M272.143 165.478L233.14 202.751" stroke="#263238" stroke-linecap="round" stroke-linejoin="round"/>
<path d="M248.438 123.163V131.86L244.424 135.696H235.323V123.163H248.438Z" fill="white" stroke="#263238" stroke-linecap="round" stroke-linejoin="round"/>
<path d="M248.438 131.86L244.424 135.696V131.86H248.438Z" fill="white" stroke="#263238" stroke-linecap="round" stroke-linejoin="round"/>
<path d="M108.962 190.424V199.122L104.948 202.967H95.8467V190.424H108.962Z" fill="white" stroke="#263238" stroke-linecap="round" stroke-linejoin="round"/>
<path d="M108.962 199.122L104.948 202.967V199.122H108.962Z" fill="white" stroke="#263238" stroke-linecap="round" stroke-linejoin="round"/>
<path d="M59.4058 244.015V252.713L55.3919 256.548H46.2817V244.015H59.4058Z" fill="white" stroke="#263238" stroke-linecap="round" stroke-linejoin="round"/>
<path d="M59.406 252.713L55.3921 256.548V252.713H59.406Z" fill="white" stroke="#263238" stroke-linecap="round" stroke-linejoin="round"/>
<path d="M314.5 143.333H266.099V172.322H314.5V143.333Z" fill="#263238" stroke="#263238" stroke-linecap="round" stroke-linejoin="round"/>
<path d="M314.5 143.333H266.099V147.738H314.5V143.333Z" fill="#07B86F" stroke="#263238" stroke-linecap="round" stroke-linejoin="round"/>
<path d="M271.033 151.453H283.409" stroke="white" stroke-linecap="round" stroke-linejoin="round"/>
<path d="M277.221 154.755H298.634" stroke="white" stroke-linecap="round" stroke-linejoin="round"/>
<path d="M274.488 157.832H280.793" stroke="white" stroke-linecap="round" stroke-linejoin="round"/>
<path d="M277.221 161.461H291.644" stroke="white" stroke-linecap="round" stroke-linejoin="round"/>
<path d="M271.033 164.754H283.409" stroke="white" stroke-linecap="round" stroke-linejoin="round"/>
<path d="M132.468 259.971H84.0664V288.96H132.468V259.971Z" fill="#263238" stroke="#263238" stroke-linecap="round" stroke-linejoin="round"/>
<path d="M132.468 259.971H84.0664V264.375H132.468V259.971Z" fill="#07B86F" stroke="#263238" stroke-linecap="round" stroke-linejoin="round"/>
<path d="M89.0093 268.099H101.376" stroke="white" stroke-linecap="round" stroke-linejoin="round"/>
<path d="M95.188 271.392H116.601" stroke="white" stroke-linecap="round" stroke-linejoin="round"/>
<path d="M92.4551 274.469H98.7601" stroke="white" stroke-linecap="round" stroke-linejoin="round"/>
<path d="M95.188 278.098H109.611" stroke="white" stroke-linecap="round" stroke-linejoin="round"/>
<path d="M89.0093 281.4H101.376" stroke="white" stroke-linecap="round" stroke-linejoin="round"/>
<path d="M150.634 49.996H106.166C105.645 49.9983 105.146 50.197 104.778 50.5489C104.41 50.9008 104.202 51.3775 104.199 51.8752V71.7012C104.202 72.1981 104.41 72.6738 104.778 73.0244C105.147 73.3749 105.646 73.5717 106.166 73.5717H126.1L128.373 81.3297L130.655 73.5717H150.634C151.154 73.5717 151.653 73.3749 152.021 73.0244C152.39 72.6738 152.598 72.1981 152.601 71.7012V51.8752C152.598 51.3775 152.39 50.9008 152.022 50.5489C151.654 50.197 151.155 49.9983 150.634 49.996Z" fill="#07B86F" stroke="#263238" stroke-linecap="round" stroke-linejoin="round"/>
<path d="M111.578 55.668H145.177" stroke="#263238" stroke-width="2" stroke-linecap="round" stroke-linejoin="round"/>
<path d="M111.578 59.7366H145.177" stroke="#263238" stroke-width="2" stroke-linecap="round" stroke-linejoin="round"/>
<path d="M111.578 63.8052H145.177" stroke="#263238" stroke-width="2" stroke-linecap="round" stroke-linejoin="round"/>
<path d="M111.578 67.8739H136.897" stroke="#263238" stroke-width="2" stroke-linecap="round" stroke-linejoin="round"/>
<path d="M223.579 191.002C218.807 191.39 212.755 185.942 212.755 185.942C212.639 186.057 212.497 186.144 212.339 186.196C212.182 186.249 212.014 186.266 211.848 186.246C211.683 186.226 211.525 186.17 211.386 186.081C211.247 185.992 211.132 185.874 211.05 185.735C210.274 184.666 206.91 182.192 206.72 180.055C206.531 177.917 210.5 174.452 210.5 174.452C207.442 175.245 207.117 173.529 207.117 173.529C207.117 173.529 212.268 169.469 214.072 169.357C214.775 169.314 217.842 171.004 220.81 173.279C223.913 175.667 229.739 184.071 229.739 184.071C229.739 184.071 249.448 197.751 254.427 201.251C261.003 205.871 268.796 214.069 268.796 214.069C268.796 214.069 294.954 225.344 302.17 231.542L292.41 253.626C292.41 253.626 268.625 238.395 266.252 234.533C263.88 230.671 261.499 232.99 259.118 230.464C256.736 227.939 254.454 225.051 254.454 225.051C250.219 223.097 246.375 220.448 243.098 217.224C237.542 211.768 232.644 203.432 229.568 198.415C227.976 195.669 225.956 193.169 223.579 191.002Z" fill="white" stroke="#263238" stroke-linecap="round" stroke-linejoin="round"/>
<path d="M225.031 187.778C225.031 187.778 217.933 186.132 217.319 181.658C217.048 180.524 216.529 179.457 215.795 178.529C215.795 178.529 209.174 178.218 209.589 175.641L218.429 174.891C221.646 176.072 224.356 178.252 226.123 181.08" fill="white"/>
<path d="M225.031 187.778C225.031 187.778 217.933 186.132 217.319 181.658C217.048 180.524 216.529 179.457 215.795 178.529C215.795 178.529 209.174 178.218 209.589 175.641L218.429 174.891C221.646 176.072 224.356 178.252 226.123 181.08" stroke="#263238" stroke-linecap="round" stroke-linejoin="round"/>
<path d="M212.746 185.942C213.061 185.383 213.166 184.738 213.044 184.115C213.044 184.115 214.992 183.77 214.776 182.123C214.776 182.123 217.662 181.787 215.795 178.529" stroke="#263238" stroke-linecap="round" stroke-linejoin="round"/>
<path d="M214.775 182.123C214.775 182.123 210.888 179.374 210.455 178.115" stroke="#263238" stroke-linecap="round" stroke-linejoin="round"/>
<path d="M213.043 184.115C213.043 184.115 208.903 181.701 208.831 180.296" stroke="#263238" stroke-linecap="round" stroke-linejoin="round"/>
<path d="M213.99 171.719C213.99 171.719 212.674 173.977 210.491 174.452" stroke="#263238" stroke-linecap="round" stroke-linejoin="round"/>
<path d="M213.332 172.598C214.024 172.944 214.677 173.357 215.28 173.831" stroke="#263238" stroke-linecap="round" stroke-linejoin="round"/>
<path d="M364.516 248.946C354.31 244.818 343.781 241.457 333.027 238.895C317.188 235.352 291.535 232.188 291.535 232.188C291.535 232.188 298.589 300.976 296.731 305.114C294.873 309.251 283.724 323.147 283.724 323.147C283.724 323.147 344.059 345.628 354.576 347.541C365.094 349.455 359.609 314.57 359.609 314.57C359.609 314.57 370.722 270.228 364.516 248.946Z" fill="#263238"/>
<path d="M342.859 241.558C342.859 241.558 344.293 244.144 340.523 245.498C330.754 248.946 320.345 245.903 321.455 242.248C321.879 240.851 324.296 242.248 324.161 237.076C324.094 236.279 323.871 235.501 323.502 234.783C322.813 233.384 321.982 232.053 321.022 230.809C319.979 229.424 318.862 228.092 317.675 226.818C317.675 226.818 333.181 217.336 344.681 226.818C344.663 226.775 340.388 228.844 342.859 241.558Z" fill="white" stroke="#263238" stroke-linecap="round" stroke-linejoin="round"/>
<path d="M362.072 364.074C355.966 373.556 324.982 378.047 308.069 377.625C291.157 377.203 242.494 355.213 239.193 350.524C236.135 346.214 228.621 331.93 240.203 323.302C241.185 322.577 242.229 321.931 243.324 321.371C251.252 317.268 303.983 330.206 303.983 330.206C303.983 330.206 307.249 328.232 308.448 328.379C312.128 328.827 314.762 331.672 322.195 333.697C327.399 335.12 341.606 329.655 350.68 334.353C351.687 334.867 352.616 335.511 353.44 336.266C361.919 344.007 368.17 354.566 362.072 364.074Z" fill="#07B86F"/>
<mask id="mask0_14_3825" style="mask-type:luminance" maskUnits="userSpaceOnUse" x="233" y="320" width="132" height="58">
<path d="M362.072 364.074C355.966 373.556 324.982 378.047 308.069 377.625C291.157 377.203 242.494 355.213 239.193 350.524C236.135 346.214 228.621 331.93 240.203 323.302C241.185 322.577 242.229 321.931 243.324 321.371C251.252 317.268 303.983 330.206 303.983 330.206C303.983 330.206 307.249 328.232 308.448 328.379C312.128 328.827 314.762 331.672 322.195 333.697C327.399 335.12 341.606 329.655 350.68 334.353C351.687 334.867 352.616 335.511 353.44 336.266C361.919 344.007 368.17 354.566 362.072 364.074Z" fill="white"/>
</mask>
<g mask="url(#mask0_14_3825)">
<path opacity="0.3" d="M350.68 334.353C341.38 333.758 333.091 335.62 327.3 338.887C320.436 342.766 288.018 357.687 288.018 357.687C288.09 356.084 289.894 352.851 289.894 352.851C286.845 350.265 278.871 348.239 278.871 348.239C272.693 343.197 248.203 328.155 240.203 323.302C241.185 322.577 242.229 321.931 243.324 321.371C251.252 317.268 303.983 330.206 303.983 330.206C303.983 330.206 307.248 328.232 308.448 328.379C312.128 328.827 314.762 331.672 322.194 333.697C327.426 335.12 341.605 329.655 350.68 334.353Z" fill="black" fill-opacity="0.7"/>
</g>
<path d="M362.072 364.074C355.966 373.556 324.982 378.047 308.069 377.625C291.157 377.203 242.494 355.213 239.193 350.524C236.135 346.214 228.621 331.93 240.203 323.302C241.185 322.577 242.229 321.931 243.324 321.371C251.252 317.268 303.983 330.206 303.983 330.206C303.983 330.206 307.249 328.232 308.448 328.379C312.128 328.827 314.762 331.672 322.195 333.697C327.399 335.12 341.606 329.655 350.68 334.353C351.687 334.867 352.616 335.511 353.44 336.266C361.919 344.007 368.17 354.566 362.072 364.074Z" stroke="#263238" stroke-linecap="round" stroke-linejoin="round"/>
<path d="M352.565 372.66L353.34 375.91C353.34 375.91 351.266 381.53 342.147 382.452C333.027 383.374 327.624 385.297 323.205 385.547C320.894 385.721 318.572 385.686 316.268 385.443L315.366 384.168L352.565 372.66Z" fill="white" stroke="#263238" stroke-linecap="round" stroke-linejoin="round"/>
<path d="M299.608 372.315L315.411 384.168C323.028 383.545 330.596 382.463 338.07 380.926C345.556 379.271 352.096 376.901 352.448 373.642C352.998 368.695 347.46 367.341 340.884 367.531C339.657 367.531 338.394 367.652 337.123 367.772C326.596 368.85 313.211 363.298 313.211 363.298L299.608 372.315Z" fill="#263238"/>
<mask id="mask1_14_3825" style="mask-type:luminance" maskUnits="userSpaceOnUse" x="299" y="363" width="54" height="22">
<path d="M299.608 372.315L315.411 384.168C323.028 383.545 330.596 382.463 338.07 380.926C345.556 379.271 352.096 376.901 352.448 373.642C352.998 368.695 347.46 367.341 340.884 367.531C339.657 367.531 338.394 367.652 337.123 367.772C326.596 368.85 313.211 363.298 313.211 363.298L299.608 372.315Z" fill="white"/>
</mask>
<g mask="url(#mask1_14_3825)">
<path opacity="0.3" d="M352.457 373.522C349.389 374.613 346.445 375.999 343.671 377.66C343.671 377.66 328.996 384.874 306.437 377.444L299.608 372.315L313.211 363.29C313.211 363.29 326.587 368.85 337.123 367.764C338.394 367.634 339.657 367.548 340.884 367.522C347.414 367.333 352.908 368.66 352.457 373.522Z" fill="black" fill-opacity="0.7"/>
</g>
<path d="M299.608 372.315L315.411 384.168C323.028 383.545 330.596 382.463 338.07 380.926C345.556 379.271 352.096 376.901 352.448 373.642C352.998 368.695 347.46 367.341 340.884 367.531C339.657 367.531 338.394 367.652 337.123 367.772C326.596 368.85 313.211 363.298 313.211 363.298L299.608 372.315Z" stroke="#263238" stroke-linecap="round" stroke-linejoin="round"/>
<path d="M314.338 376.987C311.488 377.427 314.618 383.021 318.478 381.297C322.339 379.573 317.188 376.539 314.338 376.987Z" fill="white"/>
<mask id="mask2_14_3825" style="mask-type:luminance" maskUnits="userSpaceOnUse" x="313" y="376" width="7" height="6">
<path d="M314.338 376.987C311.488 377.427 314.618 383.021 318.478 381.297C322.339 379.573 317.188 376.539 314.338 376.987Z" fill="white"/>
</mask>
<g mask="url(#mask2_14_3825)">
<path opacity="0.2" d="M319.687 380.409C317.622 380.169 315.572 379.826 313.544 379.383C313.003 378.289 313.13 377.168 314.338 376.987C316.728 376.608 320.751 378.72 319.687 380.409Z" fill="black" fill-opacity="0.7"/>
</g>
<path d="M314.338 376.987C311.488 377.427 314.618 383.021 318.478 381.297C322.339 379.573 317.188 376.539 314.338 376.987Z" stroke="#263238" stroke-linecap="round" stroke-linejoin="round"/>
<path d="M338.07 380.918C345.556 379.263 352.096 376.892 352.448 373.634C352.998 368.686 347.46 367.333 340.884 367.522C340.595 367.79 334.218 373.677 338.07 380.918Z" fill="white"/>
<mask id="mask3_14_3825" style="mask-type:luminance" maskUnits="userSpaceOnUse" x="336" y="367" width="17" height="14">
<path d="M338.07 380.918C345.556 379.263 352.096 376.892 352.448 373.634C352.998 368.686 347.46 367.333 340.884 367.522C340.595 367.79 334.218 373.677 338.07 380.918Z" fill="white"/>
</mask>
<g mask="url(#mask3_14_3825)">
<path opacity="0.3" d="M352.456 373.522C349.389 374.613 346.445 375.999 343.671 377.659C341.694 378.533 339.622 379.195 337.492 379.633C334.967 372.996 340.613 367.772 340.884 367.522C347.414 367.333 352.907 368.66 352.456 373.522Z" fill="black" fill-opacity="0.7"/>
</g>
<path d="M338.07 380.918C345.556 379.263 352.096 376.892 352.448 373.634C352.998 368.686 347.46 367.333 340.884 367.522C340.595 367.79 334.218 373.677 338.07 380.918Z" stroke="#263238" stroke-linecap="round" stroke-linejoin="round"/>
<path d="M332.73 374.772H332.775C332.877 374.776 332.98 374.761 333.077 374.728C333.173 374.694 333.262 374.643 333.337 374.576C333.413 374.51 333.474 374.429 333.517 374.34C333.559 374.251 333.583 374.154 333.587 374.056C333.842 371.938 334.789 369.951 336.293 368.376C336.365 368.307 336.423 368.225 336.462 368.135C336.501 368.044 336.522 367.948 336.522 367.85C336.522 367.752 336.501 367.655 336.462 367.565C336.423 367.475 336.365 367.393 336.293 367.324C336.146 367.186 335.948 367.109 335.742 367.109C335.537 367.109 335.339 367.186 335.192 367.324C333.424 369.157 332.325 371.489 332.062 373.97C332.044 374.16 332.103 374.35 332.228 374.499C332.352 374.648 332.532 374.746 332.73 374.772Z" fill="white" stroke="#263238" stroke-linecap="round" stroke-linejoin="round"/>
<path d="M329.6 374.97H329.663C329.766 374.972 329.868 374.955 329.964 374.919C330.059 374.884 330.146 374.83 330.22 374.762C330.294 374.694 330.353 374.612 330.394 374.522C330.434 374.432 330.456 374.335 330.457 374.237C330.636 372.085 331.47 370.029 332.856 368.324C332.932 368.25 332.991 368.161 333.029 368.064C333.067 367.966 333.084 367.863 333.078 367.759C333.072 367.655 333.043 367.554 332.994 367.461C332.945 367.369 332.876 367.287 332.792 367.221C332.708 367.155 332.611 367.106 332.506 367.078C332.402 367.05 332.292 367.043 332.184 367.058C332.077 367.073 331.973 367.108 331.881 367.163C331.789 367.218 331.709 367.29 331.648 367.376C330.038 369.338 329.08 371.716 328.897 374.203C328.889 374.392 328.957 374.578 329.088 374.72C329.219 374.863 329.402 374.952 329.6 374.97Z" fill="white" stroke="#263238" stroke-linecap="round" stroke-linejoin="round"/>
<path d="M325.856 374.574C325.958 374.583 326.061 374.573 326.159 374.544C326.257 374.516 326.348 374.469 326.427 374.406C326.506 374.344 326.571 374.267 326.619 374.18C326.666 374.093 326.695 373.999 326.704 373.901C326.948 371.315 329.275 367.927 329.302 367.867C329.416 367.701 329.458 367.498 329.417 367.303C329.377 367.108 329.258 366.936 329.086 366.824C328.913 366.715 328.703 366.676 328.5 366.715C328.297 366.754 328.119 366.867 328.003 367.031C327.895 367.178 325.423 370.729 325.144 373.729C325.13 373.829 325.138 373.932 325.166 374.029C325.195 374.127 325.244 374.218 325.311 374.297C325.378 374.376 325.46 374.441 325.554 374.489C325.648 374.536 325.751 374.565 325.856 374.574Z" fill="white" stroke="#263238" stroke-linecap="round" stroke-linejoin="round"/>
<path d="M322.321 374.22C322.389 374.228 322.459 374.228 322.528 374.22C322.63 374.204 322.727 374.17 322.815 374.118C322.902 374.066 322.978 373.998 323.037 373.917C323.097 373.837 323.139 373.746 323.162 373.65C323.184 373.554 323.187 373.455 323.168 373.358C322.618 370.186 325.703 367.471 325.73 367.445C325.832 367.307 325.883 367.14 325.873 366.972C325.864 366.803 325.795 366.642 325.678 366.515C325.561 366.389 325.403 366.304 325.229 366.274C325.055 366.244 324.876 366.27 324.72 366.35C324.567 366.479 320.968 369.634 321.662 373.625C321.695 373.777 321.776 373.915 321.894 374.021C322.012 374.128 322.16 374.197 322.321 374.22Z" fill="white" stroke="#263238" stroke-linecap="round" stroke-linejoin="round"/>
<path d="M318.478 373.332C318.562 373.345 318.647 373.345 318.731 373.332C318.925 373.287 319.094 373.173 319.203 373.012C319.312 372.852 319.353 372.658 319.317 372.47C318.641 369.643 321.554 366.436 321.59 366.436C321.725 366.287 321.794 366.093 321.78 365.896C321.767 365.699 321.672 365.516 321.518 365.385C321.442 365.319 321.353 365.269 321.256 365.236C321.159 365.204 321.057 365.19 320.955 365.195C320.852 365.201 320.752 365.226 320.66 365.269C320.568 365.312 320.485 365.371 320.418 365.445C320.273 365.6 316.936 369.246 317.793 372.832C317.843 372.971 317.934 373.093 318.056 373.182C318.178 373.271 318.325 373.323 318.478 373.332Z" fill="white" stroke="#263238" stroke-linecap="round" stroke-linejoin="round"/>
<path d="M237.226 367.798L236.099 370.953C236.099 370.953 237.542 376.754 246.508 378.582C255.474 380.409 260.633 382.892 264.963 383.564C267.242 383.965 269.555 384.161 271.872 384.15L272.909 382.969L237.226 367.798Z" fill="white" stroke="#263238" stroke-linecap="round" stroke-linejoin="round"/>
<path d="M289.894 372.772L272.882 382.969C265.375 381.587 257.967 379.753 250.702 377.478C243.441 375.082 237.172 372.065 237.172 368.789C237.172 363.807 242.827 363.023 249.349 363.867C250.567 364.023 251.811 364.238 253.065 364.488C263.411 366.617 277.329 362.437 277.329 362.437L289.894 372.772Z" fill="#263238"/>
<mask id="mask4_14_3825" style="mask-type:luminance" maskUnits="userSpaceOnUse" x="237" y="362" width="53" height="21">
<path d="M289.894 372.772L272.882 382.969C265.375 381.587 257.967 379.753 250.702 377.478C243.441 375.082 237.172 372.065 237.172 368.789C237.172 363.807 242.827 363.023 249.349 363.867C250.567 364.023 251.811 364.238 253.065 364.488C263.411 366.617 277.329 362.437 277.329 362.437L289.894 372.772Z" fill="white"/>
</mask>
<g mask="url(#mask4_14_3825)">
<path opacity="0.3" d="M289.894 372.772L279.891 378.806C271.779 376.398 264.666 371.612 259.56 365.126C265.589 364.999 271.574 364.104 277.356 362.462L289.894 372.772Z" fill="black" fill-opacity="0.7"/>
</g>
<path d="M289.894 372.772L272.882 382.969C265.375 381.587 257.967 379.753 250.702 377.478C243.441 375.082 237.172 372.065 237.172 368.789C237.172 363.807 242.827 363.023 249.349 363.867C250.567 364.023 251.811 364.238 253.065 364.488C263.411 366.617 277.329 362.437 277.329 362.437L289.894 372.772Z" stroke="#263238" stroke-linecap="round" stroke-linejoin="round"/>
<path d="M250.702 377.47C243.441 375.073 237.172 372.056 237.172 368.781C237.172 363.798 242.827 363.014 249.349 363.859C249.638 364.152 255.329 370.66 250.702 377.47Z" fill="white" stroke="#263238" stroke-linecap="round" stroke-linejoin="round"/>
<path d="M256.691 371.893H256.646C256.439 371.879 256.245 371.789 256.107 371.641C255.968 371.492 255.896 371.298 255.906 371.1C255.892 368.972 255.175 366.902 253.859 365.186C253.782 365.111 253.723 365.021 253.685 364.922C253.647 364.824 253.631 364.719 253.638 364.614C253.646 364.509 253.676 364.407 253.727 364.314C253.779 364.221 253.85 364.139 253.936 364.074C254.023 364.009 254.122 363.962 254.229 363.936C254.336 363.911 254.447 363.907 254.555 363.925C254.663 363.942 254.767 363.982 254.858 364.04C254.949 364.099 255.027 364.175 255.086 364.264C256.642 366.254 257.478 368.675 257.467 371.16C257.464 371.355 257.382 371.541 257.236 371.679C257.091 371.816 256.895 371.893 256.691 371.893Z" fill="white" stroke="#263238" stroke-linecap="round" stroke-linejoin="round"/>
<path d="M259.776 372.384H259.704C259.497 372.366 259.306 372.271 259.173 372.119C259.039 371.968 258.974 371.771 258.992 371.574C259.056 369.419 258.457 367.294 257.269 365.462C257.209 365.381 257.168 365.289 257.146 365.192C257.123 365.095 257.122 364.995 257.14 364.897C257.158 364.799 257.197 364.706 257.253 364.623C257.309 364.539 257.382 364.467 257.467 364.41C257.552 364.354 257.649 364.314 257.75 364.293C257.851 364.272 257.956 364.27 258.058 364.288C258.161 364.305 258.258 364.342 258.346 364.395C258.433 364.449 258.508 364.519 258.568 364.6C259.961 366.711 260.653 369.175 260.552 371.669C260.543 371.86 260.457 372.041 260.313 372.174C260.169 372.307 259.977 372.382 259.776 372.384Z" fill="white" stroke="#263238" stroke-linecap="round" stroke-linejoin="round"/>
<path d="M263.547 372.384C263.339 372.38 263.142 372.298 262.997 372.156C262.852 372.014 262.771 371.824 262.771 371.625C262.825 368.996 260.877 365.436 260.85 365.402C260.754 365.224 260.736 365.018 260.798 364.828C260.861 364.637 260.999 364.478 261.183 364.385C261.368 364.294 261.582 364.276 261.78 364.336C261.978 364.396 262.143 364.528 262.239 364.704C262.329 364.859 264.395 368.634 264.34 371.651C264.336 371.849 264.25 372.036 264.101 372.174C263.952 372.311 263.753 372.386 263.547 372.384Z" fill="white" stroke="#263238" stroke-linecap="round" stroke-linejoin="round"/>
<path d="M267.101 372.384H266.893C266.694 372.33 266.525 372.202 266.423 372.029C266.322 371.857 266.296 371.653 266.352 371.462C267.254 368.367 264.485 365.35 264.458 365.324C264.379 365.253 264.317 365.167 264.276 365.072C264.234 364.976 264.213 364.874 264.214 364.77C264.216 364.667 264.24 364.565 264.285 364.471C264.329 364.377 264.394 364.293 264.474 364.224C264.555 364.155 264.649 364.102 264.752 364.07C264.855 364.037 264.963 364.025 265.071 364.035C265.178 364.044 265.283 364.075 265.378 364.124C265.472 364.174 265.555 364.242 265.621 364.324C265.757 364.471 268.995 367.971 267.858 371.867C267.805 372.018 267.703 372.15 267.567 372.243C267.431 372.336 267.268 372.385 267.101 372.384Z" fill="white" stroke="#263238" stroke-linecap="round" stroke-linejoin="round"/>
<path d="M271.024 371.893C270.937 371.896 270.851 371.881 270.771 371.85C270.673 371.82 270.582 371.771 270.504 371.706C270.426 371.642 270.362 371.563 270.317 371.475C270.271 371.386 270.245 371.29 270.239 371.191C270.234 371.093 270.249 370.994 270.284 370.901C271.267 368.16 268.715 364.686 268.697 364.652C268.623 364.573 268.567 364.48 268.534 364.38C268.5 364.279 268.489 364.173 268.501 364.068C268.513 363.963 268.549 363.861 268.605 363.77C268.661 363.679 268.737 363.6 268.827 363.539C268.917 363.478 269.02 363.436 269.128 363.415C269.237 363.395 269.349 363.396 269.456 363.42C269.564 363.444 269.666 363.489 269.754 363.553C269.842 363.616 269.915 363.697 269.969 363.79C270.095 363.954 273.008 367.919 271.773 371.401C271.715 371.547 271.613 371.672 271.479 371.759C271.345 371.847 271.186 371.894 271.024 371.893Z" fill="white" stroke="#263238" stroke-linecap="round" stroke-linejoin="round"/>
<path d="M274.731 375.935C277.518 376.668 273.829 381.883 270.14 379.814C266.451 377.746 271.953 375.211 274.731 375.935Z" fill="white" stroke="#263238" stroke-linecap="round" stroke-linejoin="round"/>
<path d="M242.566 348.248C246.742 353.842 259.127 360.023 271.43 365.117C273.63 368.6 276.226 371.841 279.169 374.78C286.764 382.245 289.858 378.065 289.858 378.065C289.858 378.065 294.656 377.547 301.737 376.625C302.032 377.281 302.546 377.826 303.198 378.174C303.851 378.521 304.606 378.653 305.345 378.547C306.247 378.409 308.051 377.151 310.045 375.487C327.931 372.901 352.204 368.591 358.753 363.574" fill="#07B86F"/>
<path d="M242.566 348.248C246.742 353.842 259.127 360.023 271.43 365.117C273.63 368.6 276.226 371.841 279.169 374.78C286.764 382.245 289.858 378.065 289.858 378.065C289.858 378.065 294.656 377.547 301.737 376.625C302.032 377.281 302.546 377.826 303.198 378.174C303.851 378.521 304.606 378.653 305.345 378.547C306.247 378.409 308.051 377.151 310.045 375.487C327.931 372.901 352.204 368.591 358.753 363.574" stroke="#263238" stroke-linecap="round" stroke-linejoin="round"/>
<path d="M351.78 337.594C348.686 334.344 345.592 334.197 339.098 334.637C339.098 334.637 322.149 339.809 310.324 346.61C298.499 353.411 281.253 360.626 281.253 360.626C281.253 360.626 275.994 359.17 272.332 360.626C272.332 360.626 269.761 360.816 271.484 365.109" stroke="#263238" stroke-linecap="round" stroke-linejoin="round"/>
<path d="M359.646 357.015C359.646 357.015 359.736 362.023 352.303 365.488" stroke="#263238" stroke-linecap="round" stroke-linejoin="round"/>
<path d="M277.672 336.12C277.672 336.12 289.398 344.222 291.752 349.567C294.057 350.495 296.282 351.593 298.409 352.851" stroke="#263238" stroke-linecap="round" stroke-linejoin="round"/>
<path d="M292.6 342.852C293.46 345.181 293.604 347.697 293.015 350.101" stroke="#263238" stroke-linecap="round" stroke-linejoin="round"/>
<path d="M289.894 337.594C290.533 338.482 291.094 339.419 291.572 340.395" stroke="#263238" stroke-linecap="round" stroke-linejoin="round"/>
<path d="M306.599 336.852C306.599 336.852 310.523 341.869 311.497 345.938" stroke="#263238" stroke-linecap="round" stroke-linejoin="round"/>
<path d="M328.455 367.16C329.914 367.078 331.366 366.905 332.802 366.643" stroke="#263238" stroke-linecap="round" stroke-linejoin="round"/>
<path d="M291.644 363.566C302.762 365.67 314.041 366.907 325.369 367.264" stroke="#263238" stroke-linecap="round" stroke-linejoin="round"/>
<path d="M371.011 287.555C371.011 287.555 368.891 322.897 366.393 324.922C363.894 326.948 359.953 327.577 352.493 328.172C345.033 328.767 312.038 330.698 312.038 330.698L308.484 320.569C308.484 320.569 326.028 318.845 333.813 316.13C339.681 314.212 345.686 312.697 351.78 311.596C351.78 311.596 350.301 302.709 350.301 298.881V280.883" fill="white"/>
<path d="M371.011 287.555C371.011 287.555 368.891 322.897 366.393 324.922C363.894 326.948 359.953 327.577 352.493 328.172C345.033 328.767 312.038 330.698 312.038 330.698L308.484 320.569C308.484 320.569 326.028 318.845 333.813 316.13C339.681 314.212 345.686 312.697 351.78 311.596C351.78 311.596 350.301 302.709 350.301 298.881V280.883" stroke="#263238" stroke-linecap="round" stroke-linejoin="round"/>
<path d="M364.516 248.946C372.553 253.678 374.925 264.617 372.147 287.968C372.147 287.968 374.52 290.727 371.011 292.106C371.011 292.106 357.869 287.408 351.762 290.649C345.656 293.89 347.252 286.175 347.252 286.175C347.252 286.175 344.736 264.694 350.301 260.807" fill="#263238"/>
<path d="M349.561 257.523C349.561 257.523 341.831 265.203 348.659 284.615C348.228 286.2 347.927 287.813 347.757 289.442C347.757 290.744 349.624 291.416 349.624 291.416" stroke="white" stroke-linecap="round" stroke-linejoin="round"/>
<path d="M340.523 270.53C340.523 270.53 341.082 280.012 347.234 284.124" stroke="white" stroke-linecap="round" stroke-linejoin="round"/>
<path d="M342.507 248.515C342.507 248.515 330.52 252.902 320.986 248.04C315.33 245.161 317.657 240.532 317.657 240.532" stroke="white" stroke-linecap="round" stroke-linejoin="round"/>
<path d="M256.303 337.611H321.554C323.028 337.611 324.495 337.429 325.92 337.068L338.791 333.844C338.969 333.8 339.127 333.701 339.239 333.562C339.352 333.423 339.413 333.252 339.413 333.077C339.413 332.864 339.325 332.66 339.168 332.51C339.01 332.36 338.797 332.275 338.575 332.275H253.606C253.385 332.277 253.174 332.363 253.019 332.513C252.864 332.663 252.776 332.866 252.776 333.077V334.241C252.776 335.134 253.148 335.992 253.809 336.624C254.471 337.256 255.368 337.611 256.303 337.611Z" fill="#757575" stroke="#263238" stroke-linecap="round" stroke-linejoin="round"/>
<path d="M249.854 334.508H315.285C315.542 334.519 315.797 334.469 316.028 334.363C316.259 334.257 316.459 334.098 316.61 333.9C316.761 333.701 316.859 333.471 316.893 333.228C316.928 332.985 316.899 332.737 316.81 332.508L304.678 287.399C304.515 286.846 304.176 286.355 303.707 285.995C303.238 285.634 302.663 285.423 302.062 285.391H236.613C236.356 285.381 236.101 285.432 235.87 285.54C235.639 285.647 235.439 285.807 235.288 286.005C235.138 286.204 235.041 286.435 235.006 286.678C234.971 286.922 234.999 287.169 235.089 287.399L247.229 332.508C247.392 333.062 247.733 333.554 248.204 333.913C248.675 334.272 249.252 334.48 249.854 334.508Z" fill="#999999" stroke="#263238" stroke-linecap="round" stroke-linejoin="round"/>
<path d="M238.922 286.994H237.686" stroke="#263238" stroke-linecap="round" stroke-linejoin="round"/>
<path d="M248.51 286.994H242.124" stroke="#263238" stroke-linecap="round" stroke-linejoin="round"/>
<path d="M313.697 328.81L302.982 289.003C302.821 288.45 302.483 287.959 302.016 287.599C301.548 287.239 300.974 287.027 300.375 286.994H249.953" stroke="#263238" stroke-linecap="round" stroke-linejoin="round"/>
<path d="M314.627 332.275L314.356 331.284" stroke="#263238" stroke-linecap="round" stroke-linejoin="round"/>
<path d="M269.527 311.087C269.571 311.452 269.65 311.813 269.761 312.165C270.591 314.88 273.252 316.535 275.697 315.845C278.141 315.156 279.449 312.397 278.619 309.682C277.789 306.967 275.11 305.312 272.666 306.001C272.38 306.085 272.105 306.198 271.845 306.338C271.979 307.259 271.832 308.197 271.421 309.04C271.009 309.883 270.352 310.594 269.527 311.087Z" fill="white" stroke="#263238" stroke-linecap="round" stroke-linejoin="round"/>
<path d="M298.409 226.551C292.744 225.965 289.659 220.819 286.25 220.017C284.347 219.582 282.484 219.005 280.675 218.293C280.675 218.293 279.503 214.379 277.744 215.707C275.985 217.034 273.676 246.308 275.94 245.386C278.204 244.463 278.213 247.92 278.213 247.92L299.238 265.625L316.864 235.8C316.864 235.8 304.073 227.146 298.409 226.551Z" fill="#263238"/>
<path d="M127.074 122.309V121.878H127.525" stroke="#263238" stroke-linecap="round" stroke-linejoin="round"/>
<path d="M130.177 121.878H206.486" stroke="#263238" stroke-linecap="round" stroke-linejoin="round" stroke-dasharray="0.98 2.93"/>
<path d="M207.803 121.878H208.254V122.309" stroke="#263238" stroke-linecap="round" stroke-linejoin="round"/>
<path d="M208.263 124.895V171.874" stroke="#263238" stroke-linecap="round" stroke-linejoin="round" stroke-dasharray="1 3"/>
<path d="M208.254 173.167V173.598H207.803" stroke="#263238" stroke-linecap="round" stroke-linejoin="round"/>
<path d="M205.16 173.598H128.851" stroke="#263238" stroke-linecap="round" stroke-linejoin="round" stroke-dasharray="0.98 2.93"/>
<path d="M127.525 173.598H127.074V173.167" stroke="#263238" stroke-linecap="round" stroke-linejoin="round"/>
<path d="M127.083 170.581V123.602" stroke="#263238" stroke-linecap="round" stroke-linejoin="round" stroke-dasharray="1 3"/>
<path d="M167.673 123.154C168.41 123.154 169.008 122.583 169.008 121.878C169.008 121.174 168.41 120.602 167.673 120.602C166.936 120.602 166.338 121.174 166.338 121.878C166.338 122.583 166.936 123.154 167.673 123.154Z" fill="#07B86F" stroke="#263238" stroke-linecap="round" stroke-linejoin="round"/>
<path d="M127.083 149.014C127.82 149.014 128.418 148.443 128.418 147.738C128.418 147.034 127.82 146.462 127.083 146.462C126.346 146.462 125.748 147.034 125.748 147.738C125.748 148.443 126.346 149.014 127.083 149.014Z" fill="#07B86F" stroke="#263238" stroke-linecap="round" stroke-linejoin="round"/>
<path d="M167.673 174.874C168.41 174.874 169.008 174.303 169.008 173.598C169.008 172.894 168.41 172.322 167.673 172.322C166.936 172.322 166.338 172.894 166.338 173.598C166.338 174.303 166.936 174.874 167.673 174.874Z" fill="#07B86F" stroke="#263238" stroke-linecap="round" stroke-linejoin="round"/>
<path d="M208.263 149.014C209 149.014 209.598 148.443 209.598 147.738C209.598 147.034 209 146.462 208.263 146.462C207.525 146.462 206.928 147.034 206.928 147.738C206.928 148.443 207.525 149.014 208.263 149.014Z" fill="#07B86F" stroke="#263238" stroke-linecap="round" stroke-linejoin="round"/>
<path d="M209.815 172.116H206.703V175.089H209.815V172.116Z" fill="#07B86F" stroke="#263238" stroke-linecap="round" stroke-linejoin="round"/>
<path d="M209.815 120.396H206.703V123.369H209.815V120.396Z" fill="#07B86F" stroke="#263238" stroke-linecap="round" stroke-linejoin="round"/>
<path d="M128.634 172.116H125.522V175.089H128.634V172.116Z" fill="#07B86F" stroke="#263238" stroke-linecap="round" stroke-linejoin="round"/>
<path d="M128.634 120.396H125.522V123.369H128.634V120.396Z" fill="#07B86F" stroke="#263238" stroke-linecap="round" stroke-linejoin="round"/>
<path d="M203.121 126.455H132.468V169.357H203.121V126.455Z" fill="white" stroke="#263238" stroke-linecap="round" stroke-linejoin="round"/>
<path d="M203.121 156.686L195.265 164.194L174.014 143.885L165.075 152.427L150.823 138.808L132.468 156.341V169.357H203.121V156.686Z" fill="#07B86F" stroke="#263238" stroke-linecap="round" stroke-linejoin="round"/>
<path d="M188.482 143.402C191.237 143.402 193.47 141.268 193.47 138.635C193.47 136.003 191.237 133.869 188.482 133.869C185.727 133.869 183.494 136.003 183.494 138.635C183.494 141.268 185.727 143.402 188.482 143.402Z" fill="#07B86F" stroke="#263238" stroke-linecap="round" stroke-linejoin="round"/>
<path d="M302.17 234.464C302.17 234.464 296.758 244.093 296.118 258.824" stroke="white" stroke-linecap="round" stroke-linejoin="round"/>
<path d="M286.259 241.127C286.259 241.127 287.873 249.316 292.573 255.247" stroke="white" stroke-linecap="round" stroke-linejoin="round"/>
<path d="M308.484 274.918C308.484 274.918 316.602 300.398 334.236 307.898" stroke="white" stroke-linecap="round" stroke-linejoin="round"/>
<path d="M329.843 228.792C329.843 228.792 329.077 234.352 323.484 234.74C322.795 233.341 321.965 232.01 321.004 230.766C323.908 229.945 326.859 229.286 329.843 228.792Z" fill="#263238"/>
<path d="M341.759 229.18C341.759 229.18 351.113 230.275 355.028 218.276C358.942 206.277 355.866 197.234 340.388 192.881C331.801 190.468 323.25 192.407 320.12 198.622C317.468 203.941 318.722 208.363 318.118 210.147C317.432 212.147 311.1 213.845 311.1 215.216C311.1 216.345 314.609 218.276 314.609 218.276L313.581 221.258L314.546 221.75C314.546 221.75 312.742 228.465 313.581 230.835C314.176 232.559 330.024 233.283 331.26 228.99" fill="white"/>
<path d="M341.759 229.18C341.759 229.18 351.113 230.275 355.028 218.276C358.942 206.277 355.866 197.234 340.388 192.881C331.801 190.468 323.25 192.407 320.12 198.622C317.468 203.941 318.722 208.363 318.118 210.147C317.432 212.147 311.1 213.845 311.1 215.216C311.1 216.345 314.609 218.276 314.609 218.276L313.581 221.258L314.546 221.75C314.546 221.75 312.742 228.464 313.581 230.835C314.176 232.559 330.024 233.283 331.26 228.99" stroke="#263238" stroke-linecap="round" stroke-linejoin="round"/>
<path d="M320.21 202.975C320.21 202.975 323.304 203.716 324.152 205.268" stroke="#263238" stroke-linecap="round" stroke-linejoin="round"/>
<path d="M320.751 209.794C320.616 210.656 320.823 211.406 321.22 211.457C321.617 211.509 322.032 210.854 322.167 209.983C322.303 209.113 322.086 208.371 321.698 208.32C321.311 208.268 320.887 208.923 320.751 209.794Z" fill="#263238"/>
<path d="M314.545 221.75C314.545 221.75 319.579 223.594 321.455 222.482" stroke="#263238" stroke-linecap="round" stroke-linejoin="round"/>
<path d="M316.313 209.104C315.943 211.035 316.394 212.724 317.324 212.888C318.253 213.052 319.317 211.63 319.687 209.707C320.057 207.785 319.615 206.078 318.677 205.915C317.738 205.751 316.692 207.182 316.313 209.104Z" stroke="#263238" stroke-linecap="round" stroke-linejoin="round"/>
<path d="M355.442 199.286C354.689 195.793 352.59 192.698 349.561 190.614C346.185 188.349 342.32 186.837 338.25 186.192C338.25 186.192 341.236 187.442 342.372 189.088C342.372 189.088 334.642 183.537 325.46 187.183C316.278 190.83 317.423 200.303 317.423 200.303L318.758 197.82C318.758 197.82 318.605 200.777 320.228 201.863C320.715 200.415 321.378 199.026 322.204 197.726C322.204 197.726 324.639 204.716 331.341 207.087C330.886 205.985 330.847 204.765 331.233 203.639C331.233 203.639 334.949 211.319 333.867 215.069L335.048 217.034C335.048 217.034 339.315 212.905 342.787 216.345C344.781 218.327 338.972 225.827 338.142 225.827L341.651 230.749C341.651 230.749 350.418 231.947 355.469 222.87C360.521 213.793 359.285 209.94 359.285 209.94C359.285 209.94 360.936 212.147 361.089 213.388C361.107 213.371 362.604 203.622 355.442 199.286Z" fill="#263238"/>
<path d="M334.813 217.905C334.813 217.905 337.519 209.216 343.274 212.276C349.029 215.336 344.925 219.974 342.859 221.758C340.794 223.542 339.251 226.784 337.907 226.784C336.563 226.784 336.266 225.206 336.266 225.206" fill="white"/>
<path d="M334.813 217.905C334.813 217.905 337.519 209.216 343.274 212.276C349.029 215.336 344.925 219.974 342.859 221.758C340.794 223.542 339.251 226.784 337.907 226.784C336.563 226.784 336.266 225.206 336.266 225.206" stroke="#263238" stroke-linecap="round" stroke-linejoin="round"/>
<path d="M319.687 209.707L335.743 212.888" stroke="#263238" stroke-linecap="round" stroke-linejoin="round"/>
</svg>
